<svg id="MENU" xmlns="http://www.w3.org/2000/svg" viewBox="0 0 148.83 131.71"><defs><style>.cls-1{opacity:0.1;}.cls-2{fill:#5d666d;}.cls-3{fill:#b4bdbf;}.cls-4{fill:#2e3942;}.cls-5{fill:#465159;}</style></defs><title>nav-bg</title><g class="cls-1"><polygon class="cls-2" points="66.51 97.52 87.09 63.32 107.67 97.52 66.51 97.52"/><polygon class="cls-3" points="107.67 97.52 148.83 97.52 128.25 131.71 107.67 97.52"/><polygon class="cls-2" points="4.77 63.32 45.93 63.32 25.35 97.52 4.77 63.32"/><polygon class="cls-3" points="45.93 63.32 66.51 29.13 87.09 63.32 45.93 63.32"/><polygon class="cls-4" points="4.77 63.32 25.35 29.13 45.93 63.32 4.77 63.32"/><polygon class="cls-2" points="25.35 29.13 66.51 29.13 45.93 63.32 25.35 29.13"/><polygon class="cls-5" points="25.35 29.13 41.49 2.32 50.7 2.86 66.51 29.13 25.35 29.13"/><polygon class="cls-2" points="0 29.13 0 2.87 1.73 0 8.04 0.37 25.35 29.13 0 29.13"/></g></svg>