<?xml version="1.0" standalone="no"?>
<!DOCTYPE svg PUBLIC "-//W3C//DTD SVG 1.1//EN" "http://www.w3.org/Graphics/SVG/1.1/DTD/svg11.dtd" >
<svg xmlns="http://www.w3.org/2000/svg">
<metadata>
<json>
<![CDATA[
{
	"fontFamily": "icomoon",
	"majorVersion": 1,
	"minorVersion": 0,
	"license": "",
	"designerURL": "",
	"description": "Font generated by IcoMoon.",
	"fontURL": "",
	"version": "Version 1.0",
	"fontId": "icomoon",
	"psName": "icomoon",
	"subFamily": "Regular",
	"fullName": "icomoon"
}
]]>
</json>
</metadata>
<defs>
<font id="icomoon" horiz-adv-x="1024">
<font-face units-per-em="1024" ascent="960" descent="-64" />
<missing-glyph horiz-adv-x="1024" />
<glyph unicode="&#x20;" horiz-adv-x="512" d="" />
<glyph unicode="&#xe900;" glyph-name="time-lapse" data-tags="Dashboard (w%2FSideBar)+MyRankingPage" horiz-adv-x="868" d="M443.724-85.333c-0.418-0.001-0.912-0.002-1.406-0.002-151.473 0-284.284 79.907-358.577 199.866l72.044 46.863c59.139-103.566 168.897-172.245 294.695-172.245 186.793 0 338.219 151.426 338.219 338.219 0 71.448-22.154 137.721-59.968 192.325l72.995 44.761c40.885-64.032 65.166-142.104 65.166-225.847 0-233.865-189.364-423.501-423.126-423.941zM23.079 223.488c-14.571 40.939-23.019 88.161-23.079 137.348 0 233.841 190.128 476.997 423.942 476.997v-166.774c-186.556 0-338.219-123.913-338.219-310.195 0.003-39.36 6.745-77.144 19.135-112.263zM652.261 772.442c-61.27 52.478-122.265 105.505-184.358 157.708-6.64 5.135-15.083 8.231-24.25 8.231-2.304 0-4.562-0.196-6.758-0.571-7.872-5.729-13.182-14.972-13.501-25.47-1.65-27.524-0.001-82.474-0.001-109.95h-2.748v-104.406h2.748c0-27.475 0-76.656 0-102.482 0.702-11.444 6.693-21.356 15.538-27.396 1.079-0.158 2.192-0.202 3.315-0.202 10.351 0 19.816 3.791 27.084 10.059 61.216 51.333 121.387 104.086 182.382 156.014 6.816 3.891 11.337 11.114 11.337 19.393 0 8.055-4.28 15.111-10.689 19.017z" />
<glyph unicode="&#xe901;" glyph-name="google" data-tags="google-plus-logo-button" d="M443.406 341.822c-3.32 2.207-6.723 4.599-10.291 7.012-10.374 3.176-21.387 4.826-32.668 4.97h-1.361c-51.848 0-97.302-31.368-97.302-67.171 0-38.978 38.958-69.439 88.661-69.439 65.562 0 98.787 22.645 98.787 67.191 0 4.207-0.495 8.579-1.547 12.972-4.434 17.283-20.294 28.069-44.279 44.464zM406.676 477.69c0.041 0 0.041 0 0.041 0 12.395 0 22.851 4.888 30.956 14.168 12.704 14.478 18.334 38.236 14.993 63.459-5.878 45.083-38.112 82.618-71.749 83.587l-1.341 0.041c-11.9 0-22.521-4.908-30.585-14.148-12.518-14.292-17.819-36.937-14.54-62.118 5.898-45.042 38.814-83.958 71.749-84.99h0.474zM512 938.667c-282.316 0-512-229.684-512-512 0-282.295 229.684-512 512-512 282.295 0 512 229.705 512 512 0 282.316-229.664 512-512 512zM452.975 177.349c-19.345-5.589-40.278-8.414-62.242-8.414-24.46 0-47.97 2.805-69.893 8.353-42.423 10.704-73.77 30.997-88.413 57.148-6.311 11.302-9.507 23.346-9.507 35.823 0 12.848 3.073 25.883 9.136 38.793 23.243 49.538 84.515 82.865 152.387 82.865 0.681 0 1.32 0 1.939 0-5.506 9.714-8.167 19.778-8.167 30.358 0 5.259 0.701 10.621 2.104 16.086-71.192 1.609-124.463 53.745-124.463 122.483 0 48.527 38.793 95.817 94.27 114.914 16.602 5.733 33.534 8.662 50.177 8.662h152.243c5.177 0 9.776-3.362 11.384-8.291 1.609-4.908-0.165-10.312-4.352-13.343l-34.049-24.645c-2.042-1.444-4.496-2.227-7.033-2.227h-12.189c15.736-18.871 24.954-45.784 24.954-75.998 0-33.348-16.87-64.882-47.579-88.908-23.717-18.479-24.645-23.573-24.645-34.111 0.289-5.795 16.808-24.707 35.039-37.597 42.464-30.028 58.262-59.499 58.262-108.665-0.021-51.373-39.020-95.755-99.364-113.285zM796.79 438.484c0-6.6-5.383-11.962-11.962-11.962h-86.516v-86.557c0-6.6-5.383-11.962-11.92-11.962h-24.645c-6.641 0-12.003 5.362-12.003 11.962v86.557h-86.454c-6.6 0-11.962 5.321-11.962 11.962v24.604c0 6.6 5.362 12.003 11.962 12.003h86.454v86.475c0 6.62 5.362 11.962 12.003 11.962h24.645c6.538 0 11.92-5.341 11.92-11.962v-86.475h86.495c6.579 0 11.962-5.362 11.962-11.962v-24.645z" />
<glyph unicode="&#xe902;" glyph-name="linkedin" data-tags="linkedin-button" d="M512 938.667c-282.752 0-512-229.248-512-512s229.248-512 512-512 512 229.248 512 512c0 282.815-229.248 512-512 512zM384 178.667h-128v448.001h128v-448.001zM323.967 654.123c-33.152 0-59.967 26.88-59.967 60.033s26.88 60.033 59.967 60.033c33.152-0.063 60.033-26.944 60.033-60.033 0-33.152-26.88-60.033-60.033-60.033zM831.999 178.667h-128v276.992c0 32.449-9.28 55.167-49.152 55.167-66.113 0-78.848-55.167-78.848-55.167v-276.992h-128v448.001h128v-42.815c18.303 14.015 63.999 42.752 128 42.752 41.472 0 128-24.832 128-174.847v-273.091z" />
<glyph unicode="&#xe903;" glyph-name="user-log" data-tags="user-log" d="M512 938.667c-282.527 0-512-229.473-512-512 0-163.425 77.064-308.783 196.48-402.56 5.844-4.589 11.876-9.103 17.92-13.44 1.732-1.268 3.364-2.591 5.12-3.84 2.553-1.784 5.093-3.382 7.68-5.12 5.467-3.73 10.959-7.336 16.64-10.88 1.316-0.811 2.516-1.76 3.84-2.56 2.371-1.448 4.635-3.065 7.040-4.48 4.334-2.524 9.026-4.641 13.44-7.040 7.157-3.933 14.336-7.89 21.76-11.52 7.558-3.695 15.227-6.876 23.040-10.24 64.005-27.557 136.013-44.16 210.56-44.16 38.873 0 78.612 7.882 116.48 19.84 76.76 19.775 146.373 57.443 204.8 107.52 2.421 1.908 4.278 3.316 6.4 5.12 1.252 1.108 2.599 2.080 3.84 3.2 0.48 0.432 0.818 0.854 1.28 1.28 2.467 2.242 4.617 4.751 7.040 7.040 98.804 93.373 160.64 225.339 160.64 371.84 0 282.527-229.473 512-512 512zM512 897.707c260.391 0 471.040-210.649 471.040-471.040 0-129.22-51.592-246.464-135.68-331.52-39.874 30.122-87.503 46.455-128 62.72-44.382 17.825-75.978 35.377-85.76 58.88-2.176 26.645-2.058 47.689-1.92 72.96 2.663 2.897 6.475 4.897 8.96 8.32 5.613 7.73 10.997 17.239 16 27.52 8.727 17.933 15.014 39.441 18.56 60.8 6.439 3.323 13.269 4.133 18.56 10.88 9.879 12.598 16.823 30.507 19.84 55.68 2.7 22.408-4.776 37.195-14.080 48.64 9.999 32.476 22.771 84.993 18.56 138.88-2.299 29.412-9.862 58.783-27.52 83.2-16.181 22.375-42.416 38.73-75.52 45.44-21.497 27.892-60.27 38.4-104.96 38.4h-0.64c-95.677-1.761-156.766-40.438-183.040-100.48-25.022-57.182-19.418-129.445-1.28-204.16-9.775-11.414-17.487-26.794-14.72-49.92 3.028-25.169 9.965-43.083 19.84-55.68 5.423-6.919 12.587-7.558 19.2-10.88 3.63-21.419 9.598-42.907 18.56-60.8 5.151-10.284 10.924-19.819 16.64-27.52 2.531-3.41 6.278-5.448 8.96-8.32 0.135-25.264 0.258-46.308-1.92-72.96-9.745-23.385-41.42-40.481-85.76-58.24-40.855-16.363-89.048-32.989-129.28-63.36-84.088 85.056-135.68 202.3-135.68 331.52 0 260.391 210.649 471.040 471.040 471.040zM510.080 766.507c0.258 0 0.383 0.001 0.64 0 41.234-0.15 67.917-12.246 75.52-25.6l5.12-8.32 9.6-1.28c28.487-3.959 44.805-15.437 56.32-31.36s17.92-38.149 19.84-62.72c3.841-49.142-10.291-106.327-19.2-133.12l-5.12-16 14.080-8.32c-0.883 0.536 7.809-5.39 5.76-22.4-2.41-20.108-7.197-30.503-10.88-35.2s-5.603-4.467-5.76-4.48l-17.28-1.28-1.92-16.64c-1.898-17.721-9.023-39.352-17.28-56.32-4.129-8.484-8.404-15.947-12.16-21.12s-7.723-8.070-5.76-7.040l-10.88-5.76v-12.16c0-29.648-1.19-53.985 1.92-88.32v-2.56l1.28-2.56c16.871-45.408 63.445-65.11 110.080-83.84 38.263-15.368 76.856-31.692 108.8-53.12-6.716-5.383-9.186-8.548-19.2-15.36-20.233-13.764-46.687-29.887-76.16-44.8-28.73-14.537-60.43-27.799-92.8-37.76-0.838-0.258-1.722-0.387-2.56-0.64-35.345-8.454-72.122-12.8-110.080-12.8-44.862 0-88.194 6.237-129.28 17.92-65.799 20.348-125.226 53.506-170.88 93.44 32.173 21.415 71.030 37.736 109.44 53.12 46.626 18.675 93.234 38.553 110.080 83.84l1.28 5.12c3.109 34.326 1.92 58.663 1.92 88.32v12.16l-10.88 5.76c1.868-0.978-2.536 1.834-6.4 7.040s-8.551 12.637-12.8 21.12c-8.498 16.966-15.409 38.783-17.28 56.32l-1.92 16.64-17.28 1.28c-0.156 0.013-2.077-0.219-5.76 4.48s-8.46 15.087-10.88 35.2c-2.035 17.014 6.643 22.938 5.76 22.4l13.44 8.32-3.84 14.72c-19.281 74.204-22.617 141.685-2.56 187.52 20.001 45.706 60.76 74.433 145.92 76.16z" />
<glyph unicode="&#xe904;" glyph-name="yahoo" data-tags="yahoo" d="M512 938.667c-282.771 0-512-229.229-512-512s229.229-512 512-512 512 229.229 512 512-229.229 512-512 512zM609.977 274.963v-23.704h-256v23.704h80.593v109.563l-151.993 189.103h-80.303v33.185h270.222v-33.185h-75.202l108.274-142.080 101.826 89.932h-59.051v28.444h227.902l-21.912-28.444h-74.833l-154.866-127.289v-119.23h85.343zM766.706 245.357l-38.665 0.602 0.725 46.398 38.665-0.602-0.725-46.398zM767.91 322.684l-38.665 0.602 2.413 154.657 80.55-1.256-44.297-154.003z" />
<glyph unicode="&#xe905;" glyph-name="windows" data-tags="Untitled-5" d="M330.56 328.427c18.458-27.842 49.659-45.949 85.089-45.949 17.332 0 33.653 4.333 47.937 11.975 26.15 14.515 46.214 38.53 55.539 67.373 7.35 21.246 11.46 44.769 11.46 69.251 0 1.149-0.009 2.297-0.027 3.442 0.002 2.707 0.002 5.907 0.002 8.787s0 3.84 0 5.44c-0.872 29.905-9.194 57.688-23.164 81.791-16.495 30.732-49.268 51.833-86.97 51.833-2.12 0-4.224-0.067-6.311-0.198-23.466-0.562-45.073-9.293-61.949-23.472-18.862-16.382-32.884-38.181-39.638-62.977-5.932-19.976-9.227-41.899-9.227-64.592 0-10.601 0.719-21.035 2.111-31.254 2.457-26.101 11.531-50.839 25.519-72.051zM384 493.547c2.824 6.179 6.476 11.469 10.893 16.013 5.735 5.541 13.574 8.963 22.211 8.963 11.128 0 20.929-5.68 26.662-14.299 7.492-11.395 12.52-24.877 14.117-39.392 1.786-9.819 2.787-20.65 2.787-31.714 0-17.571-2.524-34.552-7.23-50.601-2.176-6.893-5.551-14.004-9.798-20.492-5.541-8.828-15.572-14.822-27.003-14.822s-21.462 5.994-27.122 15.010c-8.255 12.785-13.664 27.943-15.092 44.242-0.026 9.011-0.026 17.651-1.946 24.371-0.039 1.291-0.061 2.81-0.061 4.335 0 21.062 4.257 41.13 11.958 59.391zM512 938.667c-282.77 0-512-229.23-512-512s229.23-512 512-512c282.77 0 512 229.23 512 512s-229.23 512-512 512zM616 143.147l-390.4 27.52v516.8l390.4 34.24v-578.56zM827.52 305.387h-185.6v51.84h182.080v96c-25.92 0-8.96-1.92-10.24-3.2-32-25.92-66.56-51.52-98.56-77.44-3.477-3.489-8.286-5.647-13.6-5.647s-10.123 2.159-13.599 5.647c-11.201 8.961-23.041 17.921-33.921 27.201-1.455 0.892-2.57 2.214-3.182 3.788-0.018 16.692-0.018 32.052-0.018 51.252 16.64-13.76 32-29.44 48.64-42.56 32 25.28 61.44 48 93.12 73.92h-150.4v53.44h185.28c11.916-0.133 21.525-9.824 21.525-21.759 0-0.676-0.031-1.346-0.091-2.006 0.006-63.915 0.006-125.995 0.006-188.715 0.062-0.59 0.098-1.275 0.098-1.968 0-10.957-8.883-19.84-19.84-19.84-0.485 0-0.966 0.017-1.442 0.052z" />
<glyph unicode="&#xe906;" glyph-name="home2" data-tags="1" horiz-adv-x="1353" d="M1317.331 116.678h-1252.372c-16.997 0-30.776 13.779-30.776 30.776v699.454c0 50.508 40.945 91.454 91.454 91.454 0 0 0 0 0 0h1100.59c50.433-0.1 91.279-41.006 91.279-91.453 0 0 0 0 0 0v-731.104zM125.462 917.028c-38.63 0-69.945-31.316-69.945-69.945v-699.454c0-4.732 3.836-8.568 8.568-8.568 0 0 0 0 0 0h1230.339v708.546c0 38.63-31.316 69.945-69.945 69.945h-1100.59zM1274.839-84.939h-1203.060c-34.161 1.835-61.167 29.982-61.167 64.437s27.005 62.602 61.004 64.43l1203.223 0.007c1.003 0.056 2.177 0.087 3.358 0.087 35.636 0 64.525-28.889 64.525-64.525s-28.889-64.525-64.525-64.525c-1.181 0-2.355 0.032-3.52 0.094zM71.779 21.728c0 0 0 0 0 0-23.371 0-42.317-18.946-42.317-42.317s18.946-42.317 42.317-42.317c0 0 0 0 0 0h1203.060c0 0 0 0 0 0 23.371 0 42.317 18.946 42.317 42.317s-18.946 42.317-42.317 42.317c0 0 0 0 0 0h-1203.060zM194.533 335.957h230.295v-17.486h-230.295v17.486zM194.533 266.012h230.295v-17.486h-230.295v17.486zM548.631 335.957h230.295v-17.486h-230.295v17.486zM548.631 266.012h230.295v-17.486h-230.295v17.486zM902.73 335.957h230.295v-17.486h-230.295v17.486zM902.73 266.012h230.295v-17.486h-230.295v17.486zM469.068 450.668l-70.82 119.257 130.273 219.279h133.77l195.322-328.743-1.224-3.148h-138.492l-122.404 206.164zM725.418 470.427h110.689l-181.508 304.787h-118.732l-122.404-205.989 55.432-93.202 126.251 212.634zM469.068 447.17l-72.918 122.404v0.874l130.798 220.153h135.869l195.847-329.792-1.923-5.071h-139.891l-121.005 203.716zM400.172 569.575l68.896-115.934 126.251 212.634 123.454-207.913h136.393v1.224l-194.448 327.344h-131.847zM839.254 468.154h-114.885l-128.525 216.481-126.251-212.634-57.355 96.699v0.874l122.404 206.689h120.656zM726.467 471.651h106.667l-179.41 301.989h-116.634l-121.355-204.24 53.333-89.88 126.251 212.634zM670.161 456.963h-149.683l74.842 126.077zM543.91 470.252h102.82l-51.41 87.432zM673.833 455.214h-155.803l77.814 131.148zM524.15 458.711h143.563l-71.694 120.831zM650.402 468.504h-108.94l54.557 91.803zM547.582 472.001h96.699l-48.437 81.486zM856.391 456.963h-12.765l-69.945 119.607h130.973zM796.413 563.28l52.459-88.481 34.973 88.481h-87.432zM857.44 455.214h-14.863l-72.219 122.404h136.568zM844.5 458.711h10.667l46.164 116.109h-125.377zM849.221 470.777l-55.956 94.251h93.027zM799.385 561.531l49.311-83.585 32.525 82.71h-81.661z" />
<glyph unicode="&#xe907;" glyph-name="courses" data-tags="2" d="M119.040 897.707c-9.542-1.869-16.643-10.165-16.643-20.119 0-0.127 0.001-0.254 0.003-0.38v-102.381h-44.16c-31.974 0-58.24-26.25-58.24-58.24v-682.24c0-31.99 26.266-58.24 58.24-58.24h341.76c9.647-14.976 42.796-61.44 112-61.44s102.353 46.464 112 61.44h341.76c31.974 0 58.24 26.25 58.24 58.24v682.24c0 31.99-26.266 58.24-58.24 58.24h-44.16v102.4c-0.001 11.31-9.17 20.479-20.48 20.48-156.331 0-257.243-31.591-319.36-64-31.059-16.205-52.158-32.097-65.92-44.8-1.651-1.524-2.375-2.398-3.84-3.84-1.465 1.442-2.189 2.316-3.84 3.84-13.762 12.703-34.861 28.595-65.92 44.8-62.118 32.409-163.029 64-319.36 64-0.287 0.014-0.622 0.023-0.96 0.023s-0.673-0.008-1.007-0.024c-0.24 0.016-0.575 0.024-0.913 0.024s-0.673-0.008-1.007-0.024zM143.36 855.467c138.017-2.77 226.804-30.013 279.68-57.6 27.821-14.515 46.402-29.343 57.6-39.68 8.768-8.094 9.602-10.402 10.88-12.16v-652.16c-13.578 7.46-28.456 15.772-53.12 24.32-58.395 20.238-154.164 38.929-295.040 40.96v696.32zM880.64 855.467v-696.32c-140.876-2.031-236.645-20.722-295.040-40.96-24.664-8.548-39.542-16.86-53.12-24.32v652.16c1.278 1.758 2.112 4.066 10.88 12.16 11.198 10.337 29.779 25.165 57.6 39.68 52.876 27.587 141.663 54.83 279.68 57.6zM58.24 733.867h44.16v-593.92c0.001-11.31 9.17-20.479 20.48-20.48 150.92 0 246.207-20.094 302.72-39.68 28.257-9.793 46.294-19.356 57.6-26.24 8.824-5.373 12.102-7.804 13.44-8.96 3.755-4.064 9.111-6.601 15.061-6.601 1.009 0 2 0.073 2.97 0.214-0.015-0.015 0.097-0.016 0.21-0.016s0.225 0.001 0.337 0.003c3.404 0.581 6.434 1.935 8.994 3.877 1.663 1.057 3.137 2.328 4.409 3.779 2.186 1.695 5.838 3.842 12.18 7.704 11.306 6.884 29.343 16.447 57.6 26.24 56.513 19.586 151.8 39.68 302.72 39.68 11.31 0.001 20.479 9.17 20.48 20.48v593.92h44.16c9.764 0 17.28-7.409 17.28-17.28v-682.24c0-9.871-7.516-17.28-17.28-17.28h-351.36c-0.051 0-0.11 0.001-0.17 0.001-7.545 0-14.137-4.075-17.697-10.144-0.052-0.097-28.574-51.297-84.532-51.297s-84.48 51.2-84.48 51.2c-3.612 6.166-10.205 10.241-17.75 10.241-0.060 0-0.12 0-0.18-0.001h-351.351c-9.764 0-17.28 7.409-17.28 17.28v682.24c0 9.871 7.516 17.28 17.28 17.28z" />
<glyph unicode="&#xe908;" glyph-name="lock" data-tags="lock" horiz-adv-x="829" d="M414.333 907.947c-135.895 0-245.76-109.865-245.76-245.76v-102.4h-81.92c-34.816 0-61.44-26.624-61.44-61.44v-491.52c0-34.816 26.624-61.44 61.44-61.44h655.36c34.816 0 61.44 26.624 61.44 61.44v491.52c0 34.816-26.624 61.44-61.44 61.44h-81.92v102.4c0 135.895-109.865 245.76-245.76 245.76zM414.333 866.987c113.961 0 204.8-90.839 204.8-204.8v-102.4h-409.6v102.4c0 113.961 90.839 204.8 204.8 204.8zM414.333 354.987c34.816 0 61.44-26.624 61.44-61.44 0-18.432-8.192-34.56-20.48-44.8v-57.6c0-22.528-18.432-40.96-40.96-40.96s-40.96 18.432-40.96 40.96v57.6c-12.288 10.24-20.48 26.368-20.48 44.8 0 34.816 26.624 61.44 61.44 61.44z" />
<glyph unicode="&#xe909;" glyph-name="envelope" data-tags="envelope" d="M512 280.381l-126.683 110.885-362.203-310.491c13.166-12.215 30.939-19.822 50.542-19.822h876.69c19.529 0 37.23 7.607 50.322 19.822l-361.984 310.491-126.683-110.885zM1000.887 772.56c-13.166 12.288-30.866 19.822-50.542 19.822h-876.69c-19.529 0-37.23-7.607-50.395-19.968l488.741-418.889 488.887 419.035zM0 728.162v-607.671l353.499 300.398zM670.501 420.889l353.499-300.398v607.89z" />
<glyph unicode="&#xe90a;" glyph-name="search" data-tags="loupe" d="M420.8 876.267c-192.041 0-348.16-156.119-348.16-348.16s156.119-348.16 348.16-348.16c75.971 0 146.234 24.497 203.52 65.92l269.44-268.8 57.6 57.6-266.24 266.88c52.312 60.927 83.84 140.108 83.84 226.56 0 192.041-156.119 348.16-348.16 348.16zM420.8 835.307c169.904 0 307.2-137.296 307.2-307.2s-137.296-307.2-307.2-307.2c-169.904 0-307.2 137.296-307.2 307.2s137.296 307.2 307.2 307.2z" />
<glyph unicode="&#xe90b;" glyph-name="share" data-tags="share, social" d="M864 234.667c-45.16 0-85.92-18.738-115.012-48.83l-431.004 215.502c1.314 8.252 2.016 16.706 2.016 25.328s-0.702 17.076-2.016 25.326l431.004 215.502c29.092-30.090 69.852-48.828 115.012-48.828 88.366 0 160 71.634 160 160s-71.634 160-160 160-160-71.634-160-160c0-8.622 0.704-17.076 2.016-25.326l-431.004-215.504c-29.092 30.090-69.852 48.83-115.012 48.83-88.366 0-160-71.636-160-160 0-88.368 71.634-160 160-160 45.16 0 85.92 18.738 115.012 48.828l431.004-215.502c-1.312-8.25-2.016-16.704-2.016-25.326 0-88.368 71.634-160 160-160s160 71.632 160 160c0 88.364-71.634 160-160 160z" />
<glyph unicode="&#xe90c;" glyph-name="student" data-tags="student" horiz-adv-x="784" d="M705.211 218.609c-8.718 16.946-23.161 29.918-40.721 36.532l-118.055 54.197-56.499 47.427-90.729-90.317 37.529-261.052c0.152-0.366 0.241-0.791 0.241-1.237s-0.088-0.871-0.249-1.259l-41.232-56.065c-0.422-0.21-0.918-0.333-1.443-0.333s-1.022 0.123-1.463 0.341c-0.402-0.218-0.899-0.341-1.424-0.341s-1.022 0.123-1.463 0.341l-41.221 56.078c-0.008 0.084-0.012 0.181-0.012 0.279 0 0.845 0.317 1.615 0.839 2.199l39.176 261.461-90.729 90.317-56.499-47.427-118.772-54.437c-18.038-6.858-32.457-19.807-41.040-36.282s-130.108-304.364-62.061-304.364h742.328c69.284 0-58.561 303.942-58.561 303.942v0zM713.46 635.55c0.14-0.011 0.302-0.016 0.466-0.016 3.644 0 6.598 2.954 6.598 6.598 0 0.297-0.020 0.589-0.057 0.875l-4.12 33.784-2.887 23.507c-0.162 3.515-3.051 6.304-6.592 6.304-0.44 0-0.87-0.043-1.286-0.125l-4.907 0.007v77.944h2.474l9.073 4.536c7.212 2.796 12.232 9.678 12.232 17.733s-5.020 14.937-12.103 17.689l-313.557 113.455c-1.903 0.703-4.1 1.109-6.392 1.109s-4.49-0.407-6.524-1.152l-313.296-113.369c-7.212-2.796-12.232-9.678-12.232-17.733s5.020-14.937 12.103-17.689l116.015-41.285c-7.397-24.061-11.657-51.72-11.657-80.374 0-2.771 0.040-5.533 0.119-8.285-0.009-187.24 110.928-299.414 211.967-299.414s209.914 111.762 211.976 299.818c0.062 2.23 0.097 4.854 0.097 7.487 0 27.877-3.951 54.83-11.324 80.332l82.986 28.479v-69.284h-3.712c-0.138 0.010-0.3 0.016-0.462 0.016-3.359 0-6.132-2.51-6.545-5.757l-6.602-57.357c-0.305-0.732-0.482-1.583-0.482-2.474s0.177-1.742 0.498-2.518c1.073-1.325 2.674-2.246 4.493-2.428zM390.547 404.603c-87.842 0-148.878 103.101-160.838 206.202-11.135 95.265 126.608 99.802 134.444 41.24-4.014-17.083-9.538-32.071-16.624-46.135 12.088-35.933 206.742 122.018 203.856 5.72 0-82.481-77.12-206.202-160.838-206.202v0z" />
<glyph unicode="&#xe90d;" glyph-name="hat" data-tags="hat" horiz-adv-x="1052" d="M523.607 823.388c-2.382-0.312-4.541-0.988-6.519-1.974l-491.401-245.706c-7.039-3.342-11.819-10.393-11.819-18.56s4.78-15.218 11.695-18.507l70.524-35.253v-298.24c-23.672-8.563-40.96-31.132-40.96-57.6 0-11.838 3.991-20.871 8.32-30.72s9.363-19.559 14.72-28.8c10.714-18.481 21.76-33.92 21.76-33.92l16.64-24.32 16.64 24.32c0 0 11.046 15.439 21.76 33.92 5.357 9.241 10.391 18.951 14.72 28.8s8.32 18.882 8.32 30.72c0 26.468-17.288 49.037-40.96 57.6v277.76l81.92-40.96v-69.12c0-12.512 8.22-20.422 14.72-24.96s13.434-7.428 21.76-10.24c16.652-5.624 38.615-10.271 65.28-14.080 53.33-7.619 125.474-12.16 205.44-12.16s152.11 4.541 205.44 12.16c26.665 3.809 48.628 8.456 65.28 14.080 8.326 2.812 15.26 5.702 21.76 10.24s14.72 12.448 14.72 24.96v69.12l193.28 96.64c7.039 3.342 11.819 10.393 11.819 18.56s-4.78 15.218-11.695 18.507l-491.644 245.813c-2.624 1.31-5.716 2.077-8.987 2.077-0.893 0-1.772-0.057-2.635-0.168zM526.167 779.868l445.44-222.72-138.24-69.12v28.16c0 12.591-8.21 20.445-14.72 24.96s-13.416 7.434-21.76 10.24c-16.688 5.611-38.578 10.265-65.28 14.080-53.404 7.629-125.794 12.16-205.44 12.16s-152.036-4.531-205.44-12.16c-26.702-3.815-48.592-8.469-65.28-14.080-8.344-2.806-15.25-5.725-21.76-10.24s-14.72-12.369-14.72-24.96v-28.16l-138.24 69.12 445.44 222.72zM526.167 536.668c78.050 0 149.148-4.301 199.68-11.52 25.266-3.609 45.168-7.979 57.6-12.16 4.593-1.544 6.966-2.783 8.96-3.84v-99.84c-16.112 5.045-36.219 9.288-60.8 12.8-53.33 7.619-125.474 12.16-205.44 12.16s-152.11-4.541-205.44-12.16c-24.581-3.512-44.688-7.755-60.8-12.8v99.84c1.994 1.057 4.367 2.296 8.96 3.84 12.432 4.181 32.334 8.551 57.6 12.16 50.532 7.219 121.63 11.52 199.68 11.52zM526.167 393.308c78.385 0 149.238-4.314 199.68-11.52 18.57-2.653 30.876-5.859 42.88-8.96-12.004-3.101-24.31-6.307-42.88-8.96-50.442-7.206-121.295-11.52-199.68-11.52s-149.238 4.314-199.68 11.52c-18.57 2.653-30.876 5.859-42.88 8.96 12.004 3.101 24.31 6.307 42.88 8.96 50.442 7.206 121.295 11.52 199.68 11.52zM116.567 168.028c11.357 0 20.48-9.123 20.48-20.48 0 0.574-1.129-6.457-4.48-14.080s-8.557-16.537-13.44-24.96c-1.37-2.363-1.214-2.249-2.56-4.48-1.346 2.231-1.19 2.117-2.56 4.48-4.883 8.423-10.089 17.337-13.44 24.96s-4.48 14.654-4.48 14.080c0 11.357 9.123 20.48 20.48 20.48z" />
<glyph unicode="&#xe90e;" glyph-name="user" data-tags="round-account-button-with-user-inside" d="M510.601 882.794c-0.79 0.005-1.726 0.007-2.661 0.007-280.495 0-508.007-226.848-509.081-507.092-0.063-3.12-0.099-6.679-0.099-10.245 0-156.697 69.348-297.198 179.027-392.484 7.684 5.836 15.512 11.61 23.886 16.556l152.52 84.263c19.183 11.048 31.89 31.437 31.89 54.794 0 0.089 0 0.178-0.001 0.266v63.006c-27.815 36.453-48.837 79.704-60.256 126.71-14.523 11.743-23.643 27.523-23.643 45.435 0 0.073 0 0.146 0.001 0.22v69.461c0.117 14.987 6.508 28.458 16.672 37.934l0.031 100.251s-22.019 155.269 182.983 155.269 185.26-155.269 185.26-155.269v-99.842c10.232-9.48 16.636-22.967 16.704-37.951v-69.105c0-0.073 0.001-0.159 0.001-0.246 0-22.816-14.799-42.174-35.321-49.001-12.812-39.455-29.848-73.696-51.31-104.635-4.861-6.701-9.796-13.535-14.351-18.85v-64.538c-0.001-0.106-0.001-0.231-0.001-0.356 0-24.118 13.547-45.070 33.448-55.664l161.304-82.546c9.962-5.313 18.556-11.365 26.316-18.329 109.352 94.447 178.843 232.567 180.958 386.966 0.146 4.854 0.226 10.13 0.226 15.426 0 275.917-219.177 500.643-492.924 509.569l-0.819 0.022z" />
<glyph unicode="&#xe90f;" glyph-name="faq" data-tags="faq" horiz-adv-x="1046" d="M526.969 943.743c-280.059 0-507.52-200.494-507.52-452.48 0-122.955 55.381-233.691 145.92-316.16-3.059-59.612-29.283-104.832-60.8-138.88-32.884-35.524-68.161-56.687-86.4-72.32-4.279-3.773-6.965-9.267-6.965-15.388 0-9.464 6.419-17.43 15.142-19.779 70.969-19.145 151.306-5.383 225.423 21.087 70.677 25.242 134.136 62.234 178.56 98.56 31.218-5.456 63.301-9.6 96.64-9.6 278.085 0 508.16 200.378 508.16 452.48s-230.075 452.48-508.16 452.48zM526.969 902.783c258.491 0 467.2-184.39 467.2-411.52s-208.709-411.52-467.2-411.52c-33.21 0-66.754 3.636-98.56 9.6-1.049 0.19-2.256 0.299-3.489 0.299-5.021 0-9.619-1.806-13.182-4.805-39.453-33.681-104.167-71.885-173.409-96.615-52.275-18.67-105.433-24.972-154.24-22.4 17.468 13.18 29.537 19.529 50.56 42.24 37.26 40.252 71.847 97.736 72.96 173.44 0.005 0.161 0.007 0.35 0.007 0.54 0 6.16-2.719 11.685-7.023 15.439-88.309 76.534-140.184 179.197-140.184 293.781 0 227.246 205.947 411.52 466.56 411.52zM526.969 685.823c-40.96 0-73.472-12.544-96-37.12-24.576-24.576-35.072-57.088-37.12-96h51.2c2.048 22.528 6.656 42.752 12.8 55.040 12.288 22.528 34.432 35.2 67.2 35.2 24.576 0 45.44-6.144 55.68-20.48 10.24-12.288 16-28.928 16-47.36 0-14.336-3.968-26.752-12.16-39.040-4.096-8.192-10.496-14.336-16.64-20.48l-22.4-22.4c-22.528-22.528-36.736-41.216-42.88-57.6s-10.24-38.656-10.24-65.28h51.2c0 24.576 2.176 40.96 8.32 51.2 6.144 12.288 18.048 26.368 36.48 44.8 26.624 24.576 43.008 43.392 51.2 55.68s12.8 28.8 12.8 49.28c0 32.768-12.672 61.44-35.2 81.92-22.528 22.528-53.376 32.64-90.24 32.64zM492.409 322.943v-58.88h55.040v58.88h-55.040z" />
<glyph unicode="&#xe910;" glyph-name="globe" data-tags="globe" d="M518.298 938.503l-0.027 0.021h-0.618c-1.889 0.014-3.744 0.144-5.64 0.144-282.333 0-512.014-229.681-512.014-512s229.681-512 512-512c282.317 0 512 229.681 512 512 0 280.207-226.292 508.436-505.702 511.836zM532.013 580.888c69.706 2.625 132.897 18.601 188.519 41.253 21.501-52.338 36.365-111.107 38.814-175.458h-227.336v134.205zM491.987 446.68h-227.336c2.456 64.404 17.265 123.172 38.748 175.499 55.635-22.677 118.861-38.664 188.587-41.291v-134.208zM224.763 446.68h-184.269c4.279 102.051 41.159 195.752 100.424 271.081 34.371-27.107 76.638-55.46 125.961-79.381-23.108-56.182-39.596-120.533-42.116-191.7zM224.638 406.654c2.734-70.905 18.983-134.969 42.378-191.636-49.381-23.921-91.688-52.313-126.084-79.424-59.265 75.323-96.157 169.016-100.424 271.061h184.13zM264.703 406.654h227.283v-134.228c-69.335-2.593-132.248-18.395-187.642-40.872-21.695 52.208-36.866 110.813-39.642 175.1zM532.013 406.654h227.283c-2.778-64.26-17.983-122.892-39.687-175.1-55.389 22.474-118.28 38.265-187.61 40.872v134.228h0.014zM799.36 406.654h184.144c-4.275-102.045-41.173-195.752-100.431-271.088-34.421 27.152-76.793 55.556-126.2 79.504 23.402 56.679 39.74 120.729 42.488 191.584zM799.415 446.68c-2.436 70.95-18.464 135.153-41.681 191.98 49.068 23.862 91.114 52.099 125.341 79.101 59.272-75.33 96.157-169.030 100.431-271.070l-184.092-0.011zM856.989 748.159c-31.739-24.924-70.567-50.912-115.596-72.933-49.825 102.204-120.729 176.859-168.077 219.304 111.373-14.529 210.633-68.097 283.673-146.371zM704.001 658.601c-50.996-20.599-108.664-35.1-171.988-37.686v256.072c42.604-36.586 119.44-112.112 171.988-218.385zM491.987 877.025v-256.097c-63.362 2.586-121.051 17.113-172.072 37.746 52.552 106.358 129.448 181.836 172.072 218.351zM451.16 894.582c-28.775-26.293-62.175-61.022-88.735-94.566-26.405-33.355-54.893-75.498-79.135-125.107-45.322 22.096-84.371 48.2-116.286 73.249 73.151 78.397 172.578 131.993 284.156 146.423zM166.99 105.182c31.953 25.081 71.069 51.228 116.475 73.329 50.723-103.143 122.958-178.033 170.951-220.197-112.911 13.836-213.55 67.728-287.426 146.868zM321.009 195.136c50.748 20.378 108.085 34.708 170.978 37.265v-253.577c-42.344 36.326-118.476 111.1-170.978 216.312zM532.013-21.178v253.577c62.879-2.568 120.194-16.885 170.946-37.265-52.523-105.146-128.616-179.958-170.946-216.312zM570.085-41.608c46.983 41.617 119.376 116.639 170.32 220.169 45.445-22.123 84.613-48.287 116.585-73.379-73.757-79.062-174.214-132.9-286.904-146.79z" />
<glyph unicode="&#xe911;" glyph-name="hand" data-tags="hand" horiz-adv-x="823" d="M467.449 938.667c-50.41 0-81.92-42.52-81.92-81.92v-12.16c-12.918 7.286-26.915 12.16-40.96 12.16-38.424 0-81.209-28.735-83.84-78.72-0.006-0.191-0.010-0.415-0.010-0.64s0.004-0.449 0.011-0.673l-0.001-439.647-66.56 80c-0.252 0.554-0.466 0.974-0.693 1.385-34.203 36.786-92.915 36.145-129.227 0.535-0.136-0.127 0.135-0.513 0-0.64-36.13-33.975-36.376-91.112-1.92-127.36l1.28-1.92 236.16-302.72c34.587-46.115 88.073-71.68 145.28-71.68h165.76c101.283 0 184.32 83.037 184.32 184.32v593.92c0 15.311-0.786 38.661-11.52 60.8s-35.389 41.6-70.4 41.6c-16.267 0-29.463-5.405-40.96-12.16v12.16c0 31.11-5.422 56.137-19.84 74.88s-37.504 27.52-62.080 27.52c-18.596 0-33.387-6.11-46.080-14.080-10.588 29.682-37.886 55.040-76.8 55.040zM467.449 897.707c27.414 0 40.96-23.016 40.96-40.96v-368.64h40.96v327.68c0 10.923 2.718 21.835 8.32 28.8s13.837 12.16 32.64 12.16c16.384 0 24.018-3.639 30.080-11.52s10.88-23.686 10.88-49.92v-348.16h40.96v245.76c0 13.361 1.39 31.227 7.040 42.88s11.587 18.56 33.92 18.56c22.333 0 28.27-6.907 33.92-18.56s7.040-29.519 7.040-42.88v-593.92c0-78.941-64.419-143.36-143.36-143.36h-165.76c-45.193 0-85.787 19.235-112.64 55.040-0.211 0.22-0.42 0.429-0.633 0.633l-237.447 305.287c-0.439 0.744-0.862 1.37-1.317 1.971-21.049 21.035-20.832 51.564-0.603 70.349 0.22 0.211 0.429 0.42 0.633 0.633 20.858 20.858 50.925 20.851 69.767 1.287 0.213-0.221 0.43-0.414 0.64-0.64l101.76-122.24c3.785-4.714 9.547-7.706 16.009-7.706 11.312 0 20.482 9.17 20.482 20.482 0 0.233-0.004 0.466-0.012 0.697l0.001 494.686v0.64c1.811 27.333 24.123 39.040 42.88 39.040 9.46 0 20.487-3.568 28.16-10.24s12.8-15.701 12.8-30.72v-307.2h40.96v389.12c0 17.944 13.546 40.96 40.96 40.96z" />
<glyph unicode="&#xe912;" glyph-name="mail" data-tags="mail" horiz-adv-x="1797" d="M617.374 930.909c61.215 5.189 132.477 8.147 204.429 8.147 32.686 0 65.23-0.61 97.62-1.82l711.608 0.139c30.384 0 117.010 7.758 124.768-16.162s-45.253-64.646-60.768-76.929c-151.919-129.293-277.333-244.364-431.838-377.535-21.347-24.73-49.858-42.744-82.294-50.838-52.17-0.232-126.514 84.455-157.544 111.606-122.828 105.374-234.667 199.758-361.374 310.303-20.687 18.101-84.040 58.182-44.606 93.091zM1742.869 729.212c71.111 40.727 51.071-113.778 51.071-175.838v-402.747c0-87.919 16.162-204.283-47.838-226.909-51.071-18.101-215.273-3.232-281.212-3.232h-706.586c-86.626 0-161.616-10.343-182.303 47.838-3.395 29.097-5.332 62.807-5.332 96.97s1.937 67.873 5.707 101.027l-0.375 478.852c0 19.394-7.758 68.525 16.162 80.162s64.646-26.505 83.394-44.606c129.293-110.545 228.848-199.758 354.909-310.303 39.434-34.263 102.141-115.071 149.98-115.071 32.916 7.231 60.705 25.539 79.918 50.738 164.445 146.433 314.425 277.666 482.506 423.12zM236.606 668.445c35.556 9.051 177.131 12.283 193.939-16.162 7.1-12.619 11.282-27.701 11.282-43.759 0-23.829-9.209-45.506-24.262-61.669-28.394-16.754-198.414-12.228-213.93 12.984-7.277 11.352-11.599 25.203-11.599 40.064 0 30.402 18.092 56.579 44.097 68.351zM137.697 454.465c22.114 2.585 47.733 4.059 73.697 4.059s51.583-1.475 76.779-4.345c11.167 2.584 27.594 3.898 44.328 3.898 32.202 0 63.269-4.865 92.504-13.9 9.584-15.357 16.673-35.413 16.673-57.125 0-17.506-4.608-33.935-12.677-48.142-21.727-26.022-88.96-15.679-153.606-15.679s-129.293-9.697-156.444 9.697c-14.3 13.679-23.189 32.913-23.189 54.223 0 29.381 16.897 54.815 41.503 67.116zM435.071 221.091c48.485-138.99-109.253-108.606-217.212-108.606-64.646 0-185.535-14.869-207.515 22.626-6.514 11.39-10.355 25.035-10.355 39.576 0 29.097 15.378 54.602 38.45 68.83 31.949 3.574 68.611 5.498 105.722 5.498s73.773-1.924 109.891-5.679c65.947 0.381 144.816 13.31 181.018-22.246z" />
<glyph unicode="&#xe913;" glyph-name="news" data-tags="news" horiz-adv-x="697" d="M348.338 938.347c-124.162 0-225.92-98.412-225.92-220.16v-257.28c0-121.766 101.758-220.16 225.92-220.16s225.92 98.412 225.92 220.16v257.28c0 121.748-101.758 220.16-225.92 220.16zM348.338 896.107c102.060 0 183.68-79.508 183.68-177.92v-5.76h-112c-0.287 0.014-0.622 0.023-0.96 0.023s-0.673-0.008-1.007-0.024c-10.855-0.525-19.495-9.493-19.495-20.478 0-11.323 9.179-20.502 20.502-20.502 0.338 0 0.673 0.008 1.007 0.024l111.953-0.002v-40.96h-112c-0.287 0.014-0.622 0.023-0.96 0.023s-0.673-0.008-1.007-0.024c-10.855-0.525-19.495-9.493-19.495-20.478 0-11.323 9.179-20.502 20.502-20.502 0.338 0 0.673 0.008 1.007 0.024l111.953-0.002v-40.96h-112c-0.287 0.014-0.622 0.023-0.96 0.023s-0.673-0.008-1.007-0.024c-10.855-0.525-19.495-9.493-19.495-20.478 0-11.323 9.179-20.502 20.502-20.502 0.338 0 0.673 0.008 1.007 0.024l111.953-0.002v-46.72c0-98.412-81.62-177.92-183.68-177.92s-183.68 79.485-183.68 177.92v46.72h112c0.086-0.001 0.188-0.002 0.29-0.002 11.312 0 20.482 9.17 20.482 20.482s-9.17 20.482-20.482 20.482c-0.102 0-0.203-0.001-0.305-0.002h-111.985v40.96h112c0.086-0.001 0.188-0.002 0.29-0.002 11.312 0 20.482 9.17 20.482 20.482s-9.17 20.482-20.482 20.482c-0.102 0-0.203-0.001-0.305-0.002h-111.985v40.96h112c0.086-0.001 0.188-0.002 0.29-0.002 11.312 0 20.482 9.17 20.482 20.482s-9.17 20.482-20.482 20.482c-0.102 0-0.203-0.001-0.305-0.002h-111.985v5.76c0 98.412 81.62 177.92 183.68 177.92zM37.298 586.987c-8.105-1.752-14.089-8.86-14.089-17.366 0-0.195 0.003-0.389 0.009-0.582l-0.001-102.372c0-157.766 113.565-290.198 263.040-319.36v-131.2h-133.12c-38.97 0-71.040-32.128-71.040-71.040v-30.080h529.92v30.080c0 38.902-32.070 71.040-71.040 71.040h-130.56v131.2c149.475 29.162 263.040 161.594 263.040 319.36v102.4c0 9.897-8.023 17.92-17.92 17.92s-17.92-8.023-17.92-17.92v-102.4c0-159.765-129.515-289.28-289.28-289.28s-289.28 129.515-289.28 289.28v102.4c0.002 0.088 0.002 0.192 0.002 0.296 0 9.802-7.946 17.748-17.748 17.748-0.738 0-1.466-0.045-2.181-0.133-0.201 0.025-0.537 0.035-0.874 0.035s-0.673-0.009-1.006-0.028zM328.498 142.827c6.575-0.4 13.167-1.28 19.84-1.28s13.265 0.88 19.84 1.28v-126.080h-39.68v126.080zM153.138-24.853h149.12c1.535-0.401 3.299-0.634 5.117-0.64h81.923c1.618 0.059 3.154 0.289 4.628 0.673l147.052-0.033c13.137 0 21.81-8.677 26.24-19.84h-440.32c4.405 11.225 13.056 19.84 26.24 19.84z" />
<glyph unicode="&#xe914;" glyph-name="categories" data-tags="Untitled-7" horiz-adv-x="1531" d="M447.214 495.827h1084.139v-134.492h-1084.139v134.492zM447.214 48.613h1084.139v-134.492h-1084.139v134.492zM447.214 938.667h1084.139v-134.492h-1084.139v134.492zM0 495.827h189.164v-134.492h-189.164v134.492zM0 48.613h189.164v-134.492h-189.164v134.492zM0 938.667h189.164v-134.492h-189.164v134.492z" />
<glyph unicode="&#xe915;" glyph-name="send" data-tags="send" horiz-adv-x="1371" d="M1224.731 826.181c0 3.614 0 3.614 0 0-306.714-156.067-615.238-309.727-922.556-465.798l-171.133 175.352c-21.092 16.205-37.023 38.166-45.522 63.537-0.512 3.204-0.646 5.834-0.646 8.493 0 24.903 11.895 47.027 30.312 61.003 42.753 16.129 92.007 26.894 143.291 30.19l959.626 168.801c10.203 5.102 22.228 8.089 34.951 8.089s24.747-2.987 35.412-8.298c-0.377-1.234-0.328-2.915-0.328-4.612 0-21.144-7.562-40.522-20.132-55.578-147.52-236.075-288.526-466.26-435.555-704.281-34.951-56.643-67.49-158.479-159.081-115.695-28.308 20.199-52.558 43.682-72.921 70.295-71.097 73.72-147.022 146.635-213.306 219.546-3.614 6.627 12.052 11.447 19.885 16.272 267.547 176.558 547.748 356.125 817.103 533.287v0zM235.893 319.406c78.336-77.733 154.261-157.878 234.404-235.008-24.361-13.967-52.81-26.989-82.476-37.433-42.86-16.799-132.647-66.815-151.928 3.688-2.059 19.605-3.233 42.353-3.233 65.381s1.173 45.776 3.465 68.195c-2.040 47.802-0.232 95.407-0.232 135.178z" />
<glyph unicode="&#xe916;" glyph-name="chevron-down" data-tags="chevron-down" d="M921.4 652.227c-5.619-0.137-10.657-2.516-14.274-6.274l-395.126-395.127-395.12 395.12c-3.725 3.826-8.925 6.2-14.68 6.2-11.31-0.003-20.477-9.172-20.477-20.482 0-5.754 2.372-10.953 6.192-14.674l409.604-409.604c3.706-3.705 8.826-5.996 14.48-5.996s10.774 2.291 14.48 5.996l409.6 409.6c3.877 3.732 6.285 8.967 6.285 14.764 0 11.312-9.17 20.482-20.482 20.482-0.17 0-0.339-0.002-0.508-0.006z" />
<glyph unicode="&#xe917;" glyph-name="shop" data-tags="shop" horiz-adv-x="981" d="M490.667 928.427c-113.323 0-204.8-91.477-204.8-204.8v-40.96h-161.92l-1.92-17.92-81.92-716.8-2.56-23.040h906.24l-2.56 23.040-81.92 716.8-1.92 17.92h-161.92v40.96c0 113.323-91.477 204.8-204.8 204.8zM490.667 887.467c91.477 0 163.84-72.363 163.84-163.84v-40.96h-327.68v40.96c0 91.477 72.363 163.84 163.84 163.84zM161.067 641.707h124.8v-46.72c-12.224-7.087-20.48-20.053-20.48-35.2 0-22.622 18.338-40.96 40.96-40.96s40.96 18.338 40.96 40.96c0 15.147-8.256 28.113-20.48 35.2v46.72h327.68v-46.72c-12.224-7.087-20.48-20.053-20.48-35.2 0-22.622 18.338-40.96 40.96-40.96s40.96 18.338 40.96 40.96c0 15.147-8.256 28.113-20.48 35.2v46.72h124.8l77.44-675.84h-814.080l77.44 675.84z" />
<glyph unicode="&#xe918;" glyph-name="chat" data-tags="Untitled-20" horiz-adv-x="1185" d="M470.844 900.61c-212.544 0-389.12-153.449-389.12-346.24 0-93.266 41.866-177.82 108.8-240-9.825-29.011-30.701-52.157-53.12-70.4-12.455-10.135-24.613-18.862-34.56-27.52-4.973-4.329-9.484-8.131-13.44-14.080s-7.878-16.129-5.12-26.24l2.56-7.68 7.040-4.48c21.272-12.054 47.12-14.102 74.24-12.16s56.399 8.735 85.12 16.64c39.638 10.91 73.497 23.838 101.76 35.2 56.321-130.241 197.658-220.8 361.6-220.8 28.371 0 55.443 4.499 80.64 8.32 28.582-12.991 79.645-34.288 135.040-49.28 57.503-15.563 116.326-27.223 158.72-3.2l7.68 4.48 1.92 7.68c2.73 10.010-0.655 19.61-4.48 25.6s-7.906 10.288-12.8 14.72c-9.788 8.865-22.16 17.847-34.56 28.16-22.306 18.552-43.243 41.912-53.76 70.4 66.691 62.147 108.8 146.286 108.8 239.36 0 151.944-110.73 281.543-262.4 327.68-48.845 142.043-197.328 243.84-370.56 243.84zM470.844 859.65c192.96 0 346.24-137.468 346.24-305.28 0-167.657-155.2-305.28-348.16-305.28-27.697 0-54.903 2.036-79.36 7.68l-6.4 1.92-6.4-2.56c-2.397-1.014-7.409-3.291-10.24-4.48-0.451-0.189-1.459 0.193-1.92 0-5.010-0.378-9.462-2.504-12.804-5.764-28.972-11.897-67.155-26.759-109.436-38.396-27.087-7.455-54.512-13.078-77.44-14.72-10.163-0.728-14.416 2.326-22.4 3.2 6.573 5.103 12.105 9.185 20.48 16 27.314 22.226 60.881 54.403 71.68 102.4l2.56 12.16-8.96 8.32c-65.549 55.909-105.6 133.732-105.6 219.52 0 167.657 155.2 305.28 348.16 305.28zM852.924 610.050c3.84-1.454 7.755-2.908 11.52-4.48-2.608-3.437-4.48-7.513-4.48-12.16 0-11.311 9.169-20.48 20.48-20.48 9.426 0 16.816 6.692 19.2 15.36 45.403-25.085 83.326-59.082 111.36-99.2-2.45 1.036-4.852 1.92-7.68 1.92-11.311 0-20.48-9.169-20.48-20.48s9.169-20.48 20.48-20.48c10.867 0 19.799 8.505 20.48 19.2 9.412-16.029 17.564-33.105 23.68-50.56-1.663-2.961-3.2-5.962-3.2-9.6 0-7.673 4.635-13.772 10.88-17.28 4.877-20.359 7.68-41.231 7.68-62.72 0-7.719-0.642-15.46-1.28-23.040-9.684-1.627-17.28-9.694-17.28-19.84 0-7.979 4.861-14.539 11.52-17.92-14.062-61.447-48.9-116.363-98.56-158.72l-9.6-8.32 3.2-12.8c10.383-40.493 35.888-69.305 60.16-90.88-2.45 1.036-4.852 1.92-7.68 1.92-11.311 0-20.48-9.169-20.48-20.48 0-2.107 0.689-3.847 1.28-5.76-13.022 1.792-26.47 4.398-40.96 8.32-43.816 11.858-86.547 28.728-115.2 40.96 6.659 3.381 11.52 9.941 11.52 17.92 0 11.311-9.169 20.48-20.48 20.48s-20.48-9.169-20.48-20.48c0-2.828 0.884-5.23 1.92-7.68l-3.2-0.64c-26.468-4.072-53.918-8.32-80.64-8.32-2.991 0-5.988-0.066-8.96 0 5.319 3.699 8.96 9.67 8.96 16.64 0 11.311-9.169 20.48-20.48 20.48s-20.48-9.169-20.48-20.48c0-5.655 2.054-11.014 5.76-14.72-30.809 2.719-60.472 8.636-88.32 17.92-1.627 9.684-9.694 17.28-19.84 17.28-4.845 0-9.293-1.668-12.8-4.48-16.638 7.343-32.406 15.475-47.36 24.96 10.695 0.681 19.2 9.613 19.2 20.48 0 11.311-9.169 20.48-20.48 20.48s-20.48-9.169-20.48-20.48c0-2.329 0.564-4.314 1.28-6.4-20.81 15.419-39.543 33.287-55.68 52.48 3.599-3.14 8.289-5.12 13.44-5.12 11.311 0 20.48 9.169 20.48 20.48s-9.169 20.48-20.48 20.48c-11.311 0-20.48-9.169-20.48-20.48 0-4.647 1.872-8.723 4.48-12.16-14.246 17.401-26.692 35.875-36.48 55.68 3.201 1.625 5.722 4.055 7.68 7.040 20.958-3.313 42.26-5.76 63.36-5.76 9.64 0 19.321 0.659 28.8 1.28 3.648-3.358 8.731-5.12 14.080-5.12 6.664 0 12.26 3.392 16 8.32 31.162 4.254 61.221 11.284 89.6 21.76-1.663-2.961-3.2-5.962-3.2-9.6 0-11.311 9.169-20.48 20.48-20.48s20.48 9.169 20.48 20.48c0 9.426-6.692 16.816-15.36 19.2 16.437 7.194 32.302 15.205 47.36 24.32 2.781-1.412 5.628-2.56 8.96-2.56 11.311 0 20.48 9.169 20.48 20.48 0 0.499-0.605 0.79-0.64 1.28 16.994 12.454 32.94 26.138 47.36 40.96 7.047 2.177 11.914 8.051 13.44 15.36 12.846 14.817 25.143 30.118 35.2 46.72 2.293-0.887 4.434-1.92 7.040-1.92 11.311 0 20.48 9.169 20.48 20.48 0 7.168-4.023 12.981-9.6 16.64 17.882 39.674 28.16 83.060 28.16 128.64 0 18.945-1.871 37.599-5.12 55.68zM941.884 552.45c-11.311 0-20.48-9.169-20.48-20.48s9.169-20.48 20.48-20.48c11.311 0 20.48 9.169 20.48 20.48s-9.169 20.48-20.48 20.48zM880.444 491.010c-11.311 0-20.48-9.169-20.48-20.48s9.169-20.48 20.48-20.48c11.311 0 20.48 9.169 20.48 20.48s-9.169 20.48-20.48 20.48zM941.884 429.57c-11.311 0-20.48-9.169-20.48-20.48s9.169-20.48 20.48-20.48c11.311 0 20.48 9.169 20.48 20.48s-9.169 20.48-20.48 20.48zM880.444 368.13c-11.311 0-20.48-9.169-20.48-20.48s9.169-20.48 20.48-20.48c11.311 0 20.48 9.169 20.48 20.48s-9.169 20.48-20.48 20.48zM1003.324 368.13c-11.311 0-20.48-9.169-20.48-20.48s9.169-20.48 20.48-20.48c11.311 0 20.48 9.169 20.48 20.48s-9.169 20.48-20.48 20.48zM819.004 306.69c-11.311 0-20.48-9.169-20.48-20.48s9.169-20.48 20.48-20.48c11.311 0 20.48 9.169 20.48 20.48s-9.169 20.48-20.48 20.48zM941.884 306.69c-11.311 0-20.48-9.169-20.48-20.48s9.169-20.48 20.48-20.48c11.311 0 20.48 9.169 20.48 20.48s-9.169 20.48-20.48 20.48zM757.564 245.25c-11.311 0-20.48-9.169-20.48-20.48s9.169-20.48 20.48-20.48c11.311 0 20.48 9.169 20.48 20.48s-9.169 20.48-20.48 20.48zM880.444 245.25c-11.311 0-20.48-9.169-20.48-20.48s9.169-20.48 20.48-20.48c11.311 0 20.48 9.169 20.48 20.48s-9.169 20.48-20.48 20.48zM1003.324 245.25c-11.311 0-20.48-9.169-20.48-20.48s9.169-20.48 20.48-20.48c11.311 0 20.48 9.169 20.48 20.48s-9.169 20.48-20.48 20.48zM573.244 183.81c-11.311 0-20.48-9.169-20.48-20.48s9.169-20.48 20.48-20.48c11.311 0 20.48 9.169 20.48 20.48s-9.169 20.48-20.48 20.48zM696.124 183.81c-11.311 0-20.48-9.169-20.48-20.48s9.169-20.48 20.48-20.48c11.311 0 20.48 9.169 20.48 20.48s-9.169 20.48-20.48 20.48zM819.004 183.81c-11.311 0-20.48-9.169-20.48-20.48s9.169-20.48 20.48-20.48c11.311 0 20.48 9.169 20.48 20.48s-9.169 20.48-20.48 20.48zM941.884 183.81c-11.311 0-20.48-9.169-20.48-20.48s9.169-20.48 20.48-20.48c11.311 0 20.48 9.169 20.48 20.48s-9.169 20.48-20.48 20.48zM634.684 122.37c-11.311 0-20.48-9.169-20.48-20.48s9.169-20.48 20.48-20.48c11.311 0 20.48 9.169 20.48 20.48s-9.169 20.48-20.48 20.48zM757.564 122.37c-11.311 0-20.48-9.169-20.48-20.48s9.169-20.48 20.48-20.48c11.311 0 20.48 9.169 20.48 20.48s-9.169 20.48-20.48 20.48zM880.444 122.37c-11.311 0-20.48-9.169-20.48-20.48s9.169-20.48 20.48-20.48c11.311 0 20.48 9.169 20.48 20.48s-9.169 20.48-20.48 20.48zM941.884 60.93c-11.311 0-20.48-9.169-20.48-20.48s9.169-20.48 20.48-20.48c11.311 0 20.48 9.169 20.48 20.48s-9.169 20.48-20.48 20.48zM1019.964-9.47c0.876-0.738 1.695-1.841 2.56-2.56 8.457-7.033 14.585-11.375 21.12-16.64-6.853-0.646-14.401-0.687-22.4-0.64 1.258 2.656 2.56 5.186 2.56 8.32 0 4.341-1.536 8.207-3.84 11.52z" />
<glyph unicode="&#xe919;" glyph-name="clock" data-tags="clock" horiz-adv-x="1025" d="M891.694 380.151c0.020 1.471 0.032 3.209 0.032 4.949 0 209.959-167.505 380.796-376.171 386.164l-0.497 58.92h32.191v43.458h-111.381v-43.458h34.766v-60.841c-193.648-24.545-341.881-188.257-341.881-386.589 0-1.028 0.004-2.055 0.012-3.081-0.003-0.275-0.004-0.787-0.004-1.299 0-133.545 66.438-251.574 168.065-322.835l-113.981-109.324 29.938-32.191 123.614 116.854c50.591-27.332 110.738-43.395 174.637-43.395s124.046 16.063 176.623 44.373l121.95-118.475 29.938 32.191-115.566 109.45c101.973 72.264 167.723 189.815 167.723 322.722 0 0.847-0.003 1.693-0.008 2.539l0.001-0.13zM509.908 32.165c-187.45 3.605-338.026 156.411-338.026 344.385 0 1.266 0.007 2.531 0.020 3.793-0.024 1.255-0.036 2.963-0.036 4.674 0 187.722 150.734 340.238 337.771 343.116 187.578-2.878 338.312-155.394 338.312-343.116 0-1.711-0.013-3.419-0.037-5.125 0.015-0.812 0.022-2.077 0.022-3.343 0-187.975-150.575-340.78-337.689-344.38l-0.337-0.005zM515.058 675.665h-44.102v-310.644l168.038-74.040 17.383 41.527-141.319 61.163v281.994zM321.911 883.62c-33.039 29.29-76.766 47.178-124.672 47.178-104.005 0-188.318-84.313-188.318-188.318 0-47.344 17.471-90.608 46.318-123.696 3.993-3.96 8.5-7.823 13.006-11.686l264.933 265.899c-3.541 3.541-7.082 6.76-11.267 10.623v0zM69.855 669.549c-17.354 23.382-27.78 52.809-27.78 84.672 0 78.937 63.991 142.929 142.929 142.929 31.62 0 60.841-10.268 84.512-27.651zM969.919 883.62c-34.212 34.009-81.367 55.030-133.432 55.030s-99.22-21.021-133.442-55.039c-3.772-3.775-7.352-7.763-10.712-11.936l264.387-266.186q6.76 5.472 13.198 11.911c34.205 34.002 55.374 81.084 55.374 133.11s-21.17 99.108-55.365 133.101l-0.009 0.009zM955.433 669.549l-199.263 200.229c23.273 17.104 52.495 27.372 84.114 27.372 78.937 0 142.929-63.991 142.929-142.929 0-31.863-10.426-61.29-28.053-85.057l0.273 0.385z" />
<glyph unicode="&#xe91a;" glyph-name="controls" data-tags="controls" horiz-adv-x="1138" d="M442.311 454.045h-441.6v-49.778h441.6c-1.692 7.481-2.662 16.071-2.662 24.889s0.97 17.408 2.808 25.672l-0.146-0.783zM695.822 404.267h442.667v49.778h-442.311c1.692-7.481 2.662-16.071 2.662-24.889s-0.97-17.408-2.808-25.672l0.146 0.783zM672.711 428.8c0.087 1.592 0.137 3.456 0.137 5.332 0 57.339-46.483 103.822-103.822 103.822s-103.822-46.483-103.822-103.822c0-57.339 46.483-103.822 103.822-103.822 0.202 0 0.404 0.001 0.605 0.002 0.51-0.011 1.147-0.016 1.786-0.016 54.97 0 99.718 43.77 101.291 98.36l0.003 0.145zM517.333 428.8c-0.050 0.849-0.078 1.843-0.078 2.843 0 28.67 23.241 51.911 51.911 51.911s51.911-23.241 51.911-51.911c0-28.517-22.995-51.664-51.454-51.909-0.456-0.013-0.965-0.021-1.476-0.021-27.463 0-49.84 21.773-50.812 48.999l-0.003 0.089zM183.822 37.689h-183.111v-49.778h183.111c-1.613 7.482-2.536 16.078-2.536 24.889s0.924 17.407 2.679 25.695l-0.143-0.806zM437.333-12.089h701.156v49.778h-701.156c1.613-7.482 2.536-16.078 2.536-24.889s-0.924-17.407-2.679-25.695l0.143 0.806zM413.867 12.8c-1.183 55.050-46.089 99.223-101.311 99.223-0.758 0-1.514-0.008-2.268-0.025 0.112 0.002 0.112 0.002 0.112 0.002-54.787 0-99.2-44.413-99.2-99.2s44.413-99.2 99.2-99.2c0 0 0 0 0 0 0.642-0.015 1.397-0.023 2.155-0.023 55.223 0 100.128 44.173 101.309 99.113l0.002 0.11zM258.844 12.8c-0.028 0.636-0.044 1.382-0.044 2.132 0 28.67 23.241 51.911 51.911 51.911s51.911-23.241 51.911-51.911c0-28.67-23.241-51.911-51.911-51.911-0.11 0-0.219 0-0.329 0.001-0.198-0.003-0.451-0.005-0.705-0.005-27.707 0-50.238 22.163-50.832 49.728l-0.001 0.055zM1005.511 813.511h132.978v50.489h-131.911c1.689-7.427 2.656-15.956 2.656-24.711s-0.968-17.284-2.802-25.486l0.146 0.775zM982.4 838.045c0 57.143-46.324 103.467-103.467 103.467s-103.467-46.324-103.467-103.467c0-57.143 46.324-103.467 103.467-103.467s103.467 46.324 103.467 103.467v0zM827.378 838.045c2.287 26.762 24.575 47.619 51.733 47.619s49.446-20.856 51.72-47.426c-2.274-26.955-24.561-47.811-51.72-47.811s-49.446 20.856-51.72 47.426l-0.013 0.193zM752.356 862.578h-751.644v-48h752c-1.609 7.429-2.53 15.962-2.53 24.711s0.921 17.283 2.672 25.509l-0.142-0.798z" />
<glyph unicode="&#xe91b;" glyph-name="course" data-tags="course" horiz-adv-x="1095" d="M154.54 918.176c-9.542-1.869-16.643-10.165-16.643-20.119 0-0.127 0.001-0.254 0.003-0.38v-102.381h-44.16c-31.974 0-58.24-26.25-58.24-58.24v-682.24c0-31.99 26.266-58.24 58.24-58.24h341.76c9.647-14.976 42.796-61.44 112-61.44s102.353 46.464 112 61.44h341.76c31.974 0 58.24 26.25 58.24 58.24v682.24c0 31.99-26.266 58.24-58.24 58.24h-44.16v102.4c-0.001 11.31-9.17 20.479-20.48 20.48-156.331 0-257.243-31.591-319.36-64-31.059-16.205-52.158-32.097-65.92-44.8-1.651-1.524-2.375-2.398-3.84-3.84-1.465 1.442-2.189 2.316-3.84 3.84-13.762 12.703-34.861 28.595-65.92 44.8-62.118 32.409-163.029 64-319.36 64-0.287 0.014-0.622 0.023-0.96 0.023s-0.673-0.008-1.007-0.024c-0.24 0.016-0.575 0.024-0.913 0.024s-0.673-0.008-1.007-0.024zM178.86 875.936c138.017-2.77 226.804-30.013 279.68-57.6 27.821-14.515 46.402-29.343 57.6-39.68 8.768-8.094 9.602-10.402 10.88-12.16v-652.16c-13.578 7.46-28.456 15.772-53.12 24.32-58.395 20.238-154.164 38.929-295.040 40.96v696.32zM916.14 875.936v-696.32c-140.876-2.031-236.645-20.722-295.040-40.96-24.664-8.548-39.542-16.86-53.12-24.32v652.16c1.278 1.758 2.112 4.066 10.88 12.16 11.198 10.337 29.779 25.165 57.6 39.68 52.876 27.587 141.663 54.83 279.68 57.6zM93.74 754.336h44.16v-593.92c0.001-11.31 9.17-20.479 20.48-20.48 150.92 0 246.207-20.094 302.72-39.68 28.257-9.793 46.294-19.356 57.6-26.24 8.824-5.373 12.102-7.804 13.44-8.96 3.755-4.064 9.111-6.601 15.061-6.601 1.009 0 2 0.073 2.97 0.214-0.015-0.015 0.097-0.016 0.21-0.016s0.225 0.001 0.337 0.003c3.404 0.581 6.434 1.935 8.994 3.877 1.663 1.057 3.137 2.328 4.409 3.779 2.186 1.695 5.838 3.842 12.18 7.704 11.306 6.884 29.343 16.447 57.6 26.24 56.513 19.586 151.8 39.68 302.72 39.68 11.31 0.001 20.479 9.17 20.48 20.48v593.92h44.16c9.764 0 17.28-7.409 17.28-17.28v-682.24c0-9.871-7.516-17.28-17.28-17.28h-351.36c-0.051 0-0.11 0.001-0.17 0.001-7.545 0-14.137-4.075-17.697-10.144-0.052-0.097-28.574-51.297-84.532-51.297s-84.48 51.2-84.48 51.2c-3.612 6.166-10.205 10.241-17.75 10.241-0.060 0-0.12 0-0.18-0.001h-351.351c-9.764 0-17.28 7.409-17.28 17.28v682.24c0 9.871 7.516 17.28 17.28 17.28z" />
<glyph unicode="&#xe91c;" glyph-name="gears" data-tags="gears" horiz-adv-x="1125" d="M16.501-14.542c0-38.498 31.209-69.707 69.707-69.707h62.272c2.050-0.656 4.408-1.034 6.855-1.034s4.805 0.378 7.019 1.079l830.049-0.045c12.833 0 23.236 10.403 23.236 23.236v384.784l86.437 86.437c4.176 4.2 6.757 9.989 6.757 16.381s-2.581 12.181-6.758 16.382l-86.436 86.436v385.481c0 12.833-10.403 23.236-23.236 23.236h-832.305c-1.432 0.314-3.077 0.493-4.763 0.493s-3.331-0.18-4.916-0.521l-64.21 0.028c-38.498 0-69.707-31.209-69.707-69.707zM62.973-14.542v882.959c0 12.833 10.403 23.236 23.236 23.236h46.472v-929.43h-46.472c-12.833 0-23.236 10.403-23.236 23.236zM179.151-37.778v929.43h790.016v-371.772c-0.005-0.178-0.008-0.387-0.008-0.597 0-6.27 2.483-11.96 6.52-16.14l75.277-76.207-76.213-76.213c-4.030-4.173-6.514-9.863-6.514-16.133 0-0.21 0.003-0.419 0.008-0.628l-0.001-371.741zM267.215 657.901c-11.483-1.653-20.209-11.425-20.209-23.236 0-12.958 10.504-23.462 23.462-23.462 1.147 0 2.276 0.082 3.379 0.242l69.581-0.015c12.833 0 23.236 10.403 23.236 23.236s-10.403 23.236-23.236 23.236h-76.213zM429.865 657.901c-11.483-1.653-20.209-11.425-20.209-23.236 0-12.958 10.504-23.462 23.462-23.462 1.147 0 2.276 0.082 3.379 0.242l441.353-0.015c12.833 0 23.236 10.403 23.236 23.236s-10.403 23.236-23.236 23.236h-447.985zM267.215 518.486c-11.483-1.653-20.209-11.425-20.209-23.236 0-12.958 10.504-23.462 23.462-23.462 1.147 0 2.276 0.082 3.379 0.242l69.581-0.015c12.833 0 23.236 10.403 23.236 23.236s-10.403 23.236-23.236 23.236h-76.213zM429.865 518.486c-11.483-1.653-20.209-11.425-20.209-23.236 0-12.958 10.504-23.462 23.462-23.462 1.147 0 2.276 0.082 3.379 0.242l441.353-0.015c12.833 0 23.236 10.403 23.236 23.236s-10.403 23.236-23.236 23.236h-447.985zM267.215 379.072c-11.483-1.653-20.209-11.425-20.209-23.236 0-12.958 10.504-23.462 23.462-23.462 1.147 0 2.276 0.082 3.379 0.242l69.581-0.015c12.833 0 23.236 10.403 23.236 23.236s-10.403 23.236-23.236 23.236h-76.213zM429.865 379.072c-11.483-1.653-20.209-11.425-20.209-23.236 0-12.958 10.504-23.462 23.462-23.462 1.147 0 2.276 0.082 3.379 0.242l441.353-0.015c12.833 0 23.236 10.403 23.236 23.236s-10.403 23.236-23.236 23.236h-447.985zM267.215 239.657c-11.483-1.653-20.209-11.425-20.209-23.236 0-12.958 10.504-23.462 23.462-23.462 1.147 0 2.276 0.082 3.379 0.242l69.581-0.015c12.833 0 23.236 10.403 23.236 23.236s-10.403 23.236-23.236 23.236h-76.213zM429.865 239.657c-11.483-1.653-20.209-11.425-20.209-23.236 0-12.958 10.504-23.462 23.462-23.462 1.147 0 2.276 0.082 3.379 0.242l441.353-0.015c12.833 0 23.236 10.403 23.236 23.236s-10.403 23.236-23.236 23.236h-447.985z" />
<glyph unicode="&#xe91d;" glyph-name="heart" data-tags="heart" horiz-adv-x="922" d="M284.194 788.267c-128.196 0-232.96-103.558-232.96-231.040 0-261.481 296.68-398.468 396.8-481.28l12.8-10.88 12.8 10.88c100.12 82.812 396.8 219.799 396.8 481.28 0 127.482-104.783 231.040-232.96 231.040-71.174 0-133.918-33.012-176.64-83.2-42.709 50.191-105.466 83.2-176.64 83.2zM284.194 747.307c66.914 0 125.033-33.833 159.36-85.12l17.28-25.6 17.28 25.6c34.348 51.291 92.446 85.12 159.36 85.12 106.196 0 192-84.909 192-190.080 0-223.213-251.096-348.284-368.64-440.32-117.544 92.036-368.64 217.107-368.64 440.32 0 105.171 85.781 190.080 192 190.080z" />
<glyph unicode="&#xe91e;" glyph-name="technology" data-tags="technology" d="M143.36 610.986c-45.257 0-81.92-36.663-81.92-81.92v-450.56c0-14.953 4.527-28.895 11.52-40.96h-52.48c-0.287 0.014-0.622 0.023-0.96 0.023s-0.673-0.008-1.007-0.024c-10.407-1.013-18.513-9.755-18.513-20.39 0-0.031 0-0.062 0-0.093 0-56.222 46.173-102.395 102.4-102.395h819.2c56.227 0 102.4 46.173 102.4 102.4-0.001 11.31-9.17 20.479-20.48 20.48h-52.48c6.993 12.065 11.52 26.007 11.52 40.96v450.56c0 45.257-36.663 81.92-81.92 81.92h-737.28zM143.36 570.026h737.28c24.375 0 40.96-16.585 40.96-40.96v-450.56c0-24.375-16.585-40.96-40.96-40.96h-737.28c-24.375 0-40.96 16.585-40.96 40.96v450.56c0 24.375 16.585 40.96 40.96 40.96zM160 529.066c-9.542-1.869-16.643-10.165-16.643-20.119 0-0.127 0.001-0.254 0.003-0.38v-409.581c0.001-11.31 9.17-20.479 20.48-20.48h696.32c11.31 0.001 20.479 9.17 20.48 20.48v409.6c-0.001 11.31-9.17 20.479-20.48 20.48h-696.32c-0.287 0.014-0.622 0.023-0.96 0.023s-0.673-0.008-1.007-0.024c-0.24 0.016-0.575 0.024-0.913 0.024s-0.673-0.008-1.007-0.024zM184.32 488.106h655.36v-368.64h-655.36v368.64zM462.72 375.466v-160l40.96 37.12 24.96-59.52 20.48 10.24-26.88 57.6 55.040 3.84-114.56 110.72zM49.28-3.414h925.44c-9.007-22.757-27.192-40.96-53.12-40.96h-819.2c-25.928 0-44.113 18.203-53.12 40.96z" />
<glyph unicode="&#xe91f;" glyph-name="money" data-tags="money" horiz-adv-x="1022" d="M252.16 918.187c-39.545 0-68.944-13.189-86.4-33.92s-22.4-46.482-22.4-68.48c0-52.329 28.297-94.797 67.2-122.24 11.965-8.44 24.751-15.219 38.4-21.12h-228.48v-225.28h40.96v-512h901.12v512h40.96v225.28h-228.48c13.649 5.901 26.435 12.68 38.4 21.12 38.903 27.443 67.2 69.911 67.2 122.24 0 21.998-4.944 47.749-22.4 68.48s-46.855 33.92-86.4 33.92c-40.843 0-73.888-17.241-98.56-40.96s-42.337-53.504-58.88-81.92c-16.543-28.416-32.194-55.658-48.64-74.24s-31.559-28.16-53.76-28.16c-22.201 0-37.314 9.578-53.76 28.16s-32.097 45.824-48.64 74.24c-16.543 28.416-34.208 58.201-58.88 81.92s-57.717 40.96-98.56 40.96zM252.16 877.227c29.987 0 50.495-10.919 69.76-29.44s36.235-45.056 52.48-72.96c16.245-27.904 32.182-56.982 53.12-80.64 0.399-0.451 0.876-0.833 1.28-1.28h-80.64c-41.252 0-83.923 12.308-114.56 33.92s-49.28 50.788-49.28 88.96c0 15.44 3.648 30.731 12.8 41.6s24.113 19.84 55.040 19.84zM771.84 877.227c30.927 0 45.888-8.971 55.040-19.84s12.8-26.16 12.8-41.6c0-38.172-18.643-67.348-49.28-88.96s-73.308-33.92-114.56-33.92h-80.64c0.404 0.447 0.881 0.829 1.28 1.28 20.938 23.658 36.875 52.736 53.12 80.64s33.215 54.439 52.48 72.96c19.265 18.521 39.773 29.44 69.76 29.44zM61.44 631.467h327.68v-143.36h-327.68v143.36zM430.080 631.467h163.84v-160c-0.014-0.287-0.023-0.622-0.023-0.96s0.008-0.673 0.024-1.007c-0.016-0.24-0.024-0.575-0.024-0.913s0.008-0.673 0.024-1.007c-0.080-0.625-0.125-1.404-0.125-2.193s0.045-1.568 0.132-2.334l-0.009-486.946h-163.84v487.68c0.057 0.576 0.090 1.244 0.090 1.92s-0.033 1.344-0.097 2.004c0.032 0.299 0.047 0.746 0.047 1.196s-0.015 0.897-0.043 1.34c0.017 0.226 0.026 0.562 0.026 0.9s-0.008 0.673-0.024 1.007l0.002 159.313zM634.88 631.467h327.68v-143.36h-327.68v143.36zM102.4 447.147h286.72v-471.040h-286.72v471.040zM634.88 447.147h286.72v-471.040h-286.72v471.040z" />
<glyph unicode="&#xe920;" glyph-name="path" data-tags="map-location" d="M910.219 910.588c-62.829 0-113.771-50.979-113.771-113.861 0-62.895 50.941-113.867 113.771-113.867 62.84 0 113.781 50.972 113.781 113.867 0 62.881-50.941 113.861-113.781 113.861zM227.556 56.607c0-62.885-50.94-113.864-113.778-113.864s-113.778 50.979-113.778 113.864c0 62.885 50.94 113.864 113.778 113.864s113.778-50.979 113.778-113.864zM616.127 608.080l166.295 83.206c-15.708 19.028-27.224 41.622-33.22 66.35l-166.295-83.206c15.708-19.025 27.224-41.619 33.22-66.35zM548.995 72.618c-14.957 20.39-25.352 44.311-29.713 70.263l-246.108-41.046c4.082-14.388 6.316-29.544 6.316-45.221 0-10.033-0.945-19.842-2.658-29.386l272.163 45.39zM639.566 330.545l-75.645 113.564c-18.701-16.332-41.070-28.541-65.712-35.185l75.645-113.557c18.697 16.325 41.070 28.531 65.712 35.178zM682.66 284.331c-62.836 0-113.778-50.966-113.778-113.857 0-62.874 50.941-113.857 113.778-113.857 62.84 0 113.788 50.983 113.788 113.857 0 62.892-50.948 113.857-113.788 113.857zM568.882 568.996c0-62.883-50.939-113.861-113.774-113.861s-113.774 50.977-113.774 113.861c0 62.883 50.939 113.861 113.774 113.861s113.774-50.977 113.774-113.861z" />
<glyph unicode="&#xe921;" glyph-name="star" data-tags="star" horiz-adv-x="1076" d="M205.838-85.333l102.054 384-307.892 249.081 396.108 20.757 141.838 370.162 141.838-370.162 396.108-20.757-307.892-249.081 102.054-382.27-332.108 214.486-332.108-216.216zM537.946 172.397l276.757-178.162-84.757 318.27 256 207.568-328.649 17.297-119.351 304.432-117.622-306.162-328.649-17.297 256-207.568-84.757-318.27 275.027 179.892z" />
<glyph unicode="&#xe922;" glyph-name="tag" data-tags="tag" horiz-adv-x="1056" d="M604.641 900.496c-6.972-0.091-14.038-0.362-21.12-1.28-14.163-1.836-29.651-6.611-41.6-18.56l-465.28-465.28c-22.976-22.945-22.976-60.895 0-83.84l355.84-355.84c22.95-22.95 60.89-22.95 83.84 0l465.28 465.28c11.86 11.844 16.719 27.488 18.56 41.6s1.28 28.025 1.28 41.6v304.64c0 39.346-32.334 71.68-71.68 71.68h-304.64c-6.63 0-13.508 0.091-20.48 0zM605.281 859.536c6.030 0.167 12.851 0 19.84 0h304.64c17.22 0 30.72-13.5 30.72-30.72v-304.64c0-14.278-0.059-27.127-1.28-36.48s-3.145-14.030-6.4-17.28l-465.28-465.92c-7.278-7.278-18.962-7.278-26.24 0l-2.56 3.2-353.28 352.64c-7.293 7.284-7.293 18.956 0 26.24l465.92 465.28c3.165 3.165 8.46 5.174 17.92 6.4 4.73 0.613 9.97 1.113 16 1.28zM817.121 798.096c-45.001 0-81.92-36.919-81.92-81.92s36.919-81.92 81.92-81.92c45.001 0 81.92 36.919 81.92 81.92s-36.919 81.92-81.92 81.92zM817.121 757.136c22.864 0 40.96-18.096 40.96-40.96s-18.096-40.96-40.96-40.96c-22.864 0-40.96 18.096-40.96 40.96s18.096 40.96 40.96 40.96z" />
<glyph unicode="&#xe923;" glyph-name="time" data-tags="time" horiz-adv-x="1062" d="M727.040 641.707c-56.32 61.44-138.24 92.16-215.040 92.16v-307.2l-215.040-215.040c117.76-117.76 312.32-117.76 435.2 0 117.76 117.76 117.76 312.32-5.12 430.080zM512 938.667c-281.6 0-512-230.4-512-512s230.4-512 512-512 512 230.4 512 512-230.4 512-512 512zM512 17.067c-225.28 0-409.6 184.32-409.6 409.6s184.32 409.6 409.6 409.6 409.6-184.32 409.6-409.6-184.32-409.6-409.6-409.6z" />
<glyph unicode="&#xe924;" glyph-name="trophy" data-tags="trophy" horiz-adv-x="1002" d="M988.38 796.507c-8.138 8.411-19.487 13.671-32.067 13.799h-173.311v36.583c18.787 6.477 32.049 23.987 32.090 44.6 0.006 0.295 0.010 0.636 0.010 0.978 0 25.698-20.833 46.531-46.531 46.531-0.342 0-0.683-0.004-1.024-0.011l-533.289 0.001c-25.564-0.176-46.22-20.941-46.22-46.53 0-0.339 0.004-0.677 0.011-1.014 0.040-20.568 13.303-38.078 31.758-44.456l0.331-36.362h-173.929c-12.603-0.127-23.952-5.388-32.078-13.786-8.112-8.314-13.2-19.587-13.489-32.047 0.087-93.015 25.466-180.028 69.625-254.609 39.529-68.19 99.8-123.504 172.189-157.13l6.885-0.997c39.57-81.352 114.704-140.082 204.616-156.342l1.724-155.255h-80.226c-25.562-0.179-46.214-20.943-46.214-46.53 0-0.226 0.002-0.452 0.005-0.677v-64.146c-0.002-0.096-0.003-0.208-0.003-0.321 0-8.153 6.609-14.762 14.762-14.762 0.001 0 0.002 0 0.004 0h313.842c0.39-0.037 0.842-0.057 1.3-0.057 8.153 0 14.762 6.609 14.762 14.762 0 0.246-0.006 0.49-0.018 0.733l0.001 64.146c0.001 0.098 0.001 0.215 0.001 0.331 0 25.698-20.833 46.531-46.531 46.531-0.339 0-0.677-0.004-1.014-0.011l-80.817 0.001v150.503c91.636 16.518 166.77 75.248 205.603 154.923l5.23 1.677c74.781 34.623 135.052 89.937 174.86 158.592 43.88 74.116 69.259 161.129 69.347 254.064-0.29 12.54-5.377 23.814-13.487 32.125l0.009-0.010zM234.259 908.502h533.34c9.393 0 17.008-7.615 17.008-17.008s-7.615-17.008-17.008-17.008h-533.34c-9.393 0-17.008 7.615-17.008 17.008s7.615 17.008 17.008 17.008v0zM93.383 525.986c-40.262 67.845-64.091 149.543-64.18 236.8-0.001 0.086-0.001 0.157-0.001 0.228 0 4.815 1.964 9.171 5.134 12.312 2.985 3.159 7.199 5.127 11.873 5.136h173.289v-305.499c0-0.169-0.001-0.368-0.001-0.568 0-30.955 4.811-60.787 13.727-88.788-59.080 35.346-106.319 82.379-138.898 138.925l-0.943 1.775zM641.805-6.391v-49.419h-283.036v49.419c0 0.001 0 0.002 0 0.003 0 9.28 7.433 16.825 16.67 17.005h250.963c9.254-0.18 16.687-7.724 16.687-17.005 0-0.001 0-0.002 0-0.003v0zM517.616 40.461h-32.090v146.973h33.374v-146.973zM500.929 216.957c-139.698 2.703-251.908 116.586-251.908 256.677 0 0.016 0 0.032 0 0.048v370.64h503.817v-369.68c0-0.013 0-0.029 0-0.045 0-140.091-112.211-253.974-251.656-256.673l-0.252-0.004zM908.475 525.986c-33.286-58.214-80.191-105.221-136.533-137.686 6.57 24.987 11.381 54.818 11.381 85.773 0 0.2 0 0.399-0.001 0.599v305.468h173.287c4.675-0.009 8.889-1.977 11.866-5.127 2.987-3.115 4.822-7.341 4.822-11.995 0-0.073 0-0.146-0.001-0.218-0.090-87.272-23.919-168.97-65.377-238.998l1.196 2.183zM651.111 634.772h-87.927l-27.277 85.36c-4.918 14.992-18.787 25.628-35.139 25.628s-30.221-10.636-35.065-25.367l-27.030-85.621h-87.927c-0.084 0.001-0.183 0.001-0.282 0.001-16.427 0-30.326-10.827-34.948-25.735-1.282-3.806-1.982-7.893-1.982-12.143 0-12.453 6.011-23.502 15.29-30.403l71.020-53.021-27.277-85.36c-1.337-3.713-2.11-7.998-2.11-12.464 0-12.115 5.69-22.901 14.542-29.833 6.063-4.669 13.659-7.445 21.904-7.445s15.841 2.776 21.906 7.445l70.835 52.566 70.919-52.628c5.98-4.606 13.576-7.383 21.821-7.383s15.841 2.776 21.906 7.445c9.296 6.911 15.307 17.96 15.307 30.413 0 4.25-0.7 8.337-1.992 12.151l-27.198 85.093 73.487 52.628c9.38 6.973 15.391 18.022 15.391 30.475 0 4.25-0.7 8.337-1.992 12.151-4.613 14.9-18.511 25.727-34.939 25.727-0.099 0-0.198 0-0.298-0.001h0.015zM655.604 590.809l-79.905-59.367c-3.723-2.842-6.1-7.282-6.1-12.277 0-1.573 0.236-3.090 0.674-4.519l30.457-96.162c0.276-0.743 0.436-1.602 0.436-2.499 0-2.566-1.31-4.826-3.297-6.149-1.238-1.021-2.808-1.631-4.52-1.631s-3.282 0.609-4.504 1.623l-79.572 59.358c-2.383 1.803-5.397 2.888-8.664 2.888s-6.281-1.085-8.701-2.914l-79.548-59.341c-1.211-1.004-2.78-1.614-4.493-1.614s-3.282 0.609-4.504 1.623c-2.003 1.33-3.312 3.59-3.312 6.156 0 0.896 0.16 1.755 0.452 2.55l30.469 96.22c0.409 1.32 0.645 2.838 0.645 4.41 0 4.995-2.378 9.435-6.063 12.249l-79.621 59.073c-1.984 1.412-3.262 3.703-3.262 6.293 0 0.847 0.137 1.663 0.39 2.425 0.86 3.116 3.718 5.405 7.111 5.405 0.089 0 0.179-0.002 0.267-0.005h98.825c0.017 0 0.038 0 0.058 0 6.548 0 12.099 4.263 14.032 10.165l30.515 96.375c1.12 2.957 3.929 5.022 7.22 5.022s6.1-2.064 7.203-4.969l30.503-96.324c1.962-6.006 7.514-10.269 14.061-10.269 0.021 0 0.041 0 0.062 0h98.514c0.076 0.003 0.165 0.004 0.254 0.004 3.393 0 6.251-2.289 7.114-5.408 0.249-0.76 0.386-1.575 0.386-2.423 0-2.59-1.278-4.881-3.239-6.277l-0.024-0.016z" />
<glyph unicode="&#xe925;" glyph-name="cross" data-tags="cross" d="M187.52 809.387l-58.24-58.24 324.48-324.48-326.4-327.040 57.6-57.6 327.040 326.4 326.4-326.4 58.24 58.24-326.4 326.4 324.48 324.48-58.24 58.24-324.48-324.48-324.48 324.48z" />
<glyph unicode="&#xe926;" glyph-name="leaf" data-tags="Untitled-22" horiz-adv-x="919" d="M904.135 495.608c-33.621-201.9-172.060-364.908-356.476-432.989-51.318-19.781-106.268-30.522-163.727-30.522-25.341 0-50.194 2.089-74.396 6.105-43.332 6.258-88.925 19.127-134.15 29.79-1.336 0.482-2.879 0.761-4.486 0.761-4.479 0-8.452-2.164-10.931-5.504-30.792-34.628-55.697-75.257-72.668-119.8-3.459-12.886-12.558-20.326-23.393-20.326-0.105 0-0.209 0.001-0.314 0.002-19.471 0-38.959-5.148-62.123-8.457 13.237 29.415 25.003 56.991 36.768 83.464 26.336 57.007 60.792 105.697 102.543 147.033 18.043 17.435 38.768 32.17 61.482 43.515 189.023 90.125 342.596 224.821 452.234 391.052 16.157 24.343 28.659 45.669 41.528 66.627 0.782 1.9 1.538 4.23 2.131 6.625l-7.646-9.566c-80.831-115.754-178.394-213.316-290.391-291.658-66.187-47.296-137.211-89.207-211.904-124.644-54.541-27.067-93.829-56.964-126.935-92.673l-11.276-10.195c-6.986 27.944-14.707 53.314-19.12 79.052-6.451 30.15-10.145 64.79-10.145 100.292 0 94.776 26.328 183.402 72.069 258.965 51.561 78.987 123.899 143.422 209.277 185.382 93.096 48.125 197.762 81.993 308.391 97.143 94.268 15.194 174.125 45.865 244.989 89.688l7.488 4.267h5.148c8.457-28.679 18.384-57.726 25.738-87.141 16.058-60.333 25.281-129.599 25.281-201.020 0-54.929-5.455-108.584-15.853-160.453z" />
<glyph unicode="&#xe927;" glyph-name="error" data-tags="error" horiz-adv-x="1075" d="M548.31 865.547c-262.716 0-475.687-196.493-475.687-438.88 0-65.851 15.748-128.296 43.91-184.353l-112.521-203.459c-6.254-11.302-5.123-25.246 2.866-35.401 6.18-7.854 15.546-12.255 25.235-12.255 2.829 0 5.682 0.375 8.497 1.152l246.321 67.607c75.012-45.605 164.828-72.17 261.379-72.17 262.719 0 475.692 196.49 475.692 438.88-0.002 242.387-212.976 438.88-475.692 438.88zM503.908 602.668c0 23.593 19.191 42.786 42.786 42.786s42.786-19.194 42.786-42.786v-233.589c0-23.593-19.194-42.786-42.786-42.786s-42.786 19.194-42.786 42.786v233.589zM546.691 207.879c-25.961 0-47.079 21.12-47.079 47.079 0 25.965 21.122 47.086 47.079 47.086 25.965 0 47.081-21.122 47.081-47.086 0.002-25.961-21.116-47.079-47.081-47.079z" />
<glyph unicode="&#xe928;" glyph-name="bell" data-tags="bell" horiz-adv-x="969" d="M854.429 503.287c0 157.084-121.252 287.933-284.733 323.124v34.55c-2.39 42.951-37.806 76.88-81.143 76.88-1.391 0-2.774-0.036-4.15-0.105-1.085 0.081-2.58 0.121-4.084 0.121-43.343 0-78.76-33.933-81.132-76.685l-0.011-35.081c-163.48-34.55-284.733-166.043-284.733-323.124v-281.215l-113.575-101.736v-51.187h967.451v51.187l-113.892 102.058v281.215zM484.597-86.011c0.708-0.016 1.547-0.028 2.385-0.028 7.19 0 14.22 0.708 21.012 2.058 35.787 6.151 65.71 29.526 80.932 61.285 6.018 12.253 9.428 25.883 9.564 40.289l-227.786 0.046c2.743-57.887 50.34-103.782 108.66-103.782 1.839 0 3.67 0.046 5.488 0.134l-0.254-0.012z" />
<glyph unicode="&#xe929;" glyph-name="menu" data-tags="menu" horiz-adv-x="1029" d="M-0.003 161.72h248.33v-247.050h-248.33v247.050zM-0.003 550.35h248.33v-247.050h-248.33v247.050zM-0.003 938.67h248.33v-247.050h-248.33v247.050zM390.233 161.72h248.33v-247.050h-248.33v247.050zM390.233 550.35h248.33v-247.050h-248.33v247.050zM390.233 938.67h248.33v-247.050h-248.33v247.050zM780.464 161.72h248.33v-247.050h-248.33v247.050zM780.464 550.35h248.33v-247.050h-248.33v247.050zM780.464 938.67h248.33v-247.050h-248.33v247.050z" />
<glyph unicode="&#xe92a;" glyph-name="facebook" data-tags="facebook-logo-button" d="M512 938.667c-282.316 0-512-229.684-512-512 0-282.295 229.684-512 512-512 282.295 0 512 229.705 512 512 0 282.316-229.664 512-512 512zM639.33 408.642h-83.298c0-133.084 0-296.896 0-296.896h-123.432c0 0 0 162.225 0 296.896h-58.674v104.933h58.674v67.872c0 48.61 23.098 124.566 124.566 124.566l91.465-0.351v-101.86c0 0-55.58 0-66.387 0s-26.171-5.403-26.171-28.584v-61.664h94.043l-10.786-104.912z" />
<glyph unicode="&#xe92b;" glyph-name="studyGroups" data-tags="4" horiz-adv-x="1055" d="M363.493 897.707c-67.622 0-122.88-55.258-122.88-122.88 0-40.627 19.971-76.801 50.56-99.2-16.425-8.248-31.392-18.898-44.16-32-14.91 5.28-30.684 8.32-47.36 8.32-78.933 0-143.36-64.427-143.36-143.36 0-50.176 26.035-94.69 65.28-120.32-62.575-29.569-106.24-92.99-106.24-166.4v-92.16c0-0.047-0.001-0.103-0.001-0.159 0-6.734 3.25-12.709 8.266-16.442 0.055-0.039 14.535-10.271 42.295-18.599s70.613-16 133.76-16c63.147 0 106 7.672 133.76 16 3.577 1.073 6.467 2.090 9.6 3.2v-90.88c0-0.047-0.001-0.103-0.001-0.159 0-6.734 3.25-12.709 8.266-16.442 0.055-0.039 14.535-10.271 42.295-18.599s70.613-16 133.76-16c63.147 0 106 7.672 133.76 16s42.24 18.56 42.24 18.56c5.071 3.772 8.321 9.747 8.321 16.481 0 0.056 0 0.112-0.001 0.168v90.871c3.133-1.11 6.023-2.127 9.6-3.2 27.76-8.328 70.613-16 133.76-16s106 7.672 133.76 16c27.76 8.328 42.24 18.56 42.24 18.56 5.071 3.772 8.321 9.747 8.321 16.481 0 0.056 0 0.112-0.001 0.168v92.151c0 73.41-43.665 136.831-106.24 166.4 39.245 25.63 65.28 70.144 65.28 120.32 0 78.933-64.427 143.36-143.36 143.36-17.858 0-34.765-3.583-50.56-9.6-12.91 13.49-28.108 24.829-44.8 33.28 30.589 22.399 50.56 58.573 50.56 99.2 0 67.622-55.258 122.88-122.88 122.88s-122.88-55.258-122.88-122.88c0-40.627 19.971-76.801 50.56-99.2-47.032-23.174-81.419-67.809-89.6-121.6-8.193 53.869-42.474 98.442-89.6 121.6 30.589 22.399 50.56 58.573 50.56 99.2 0 67.622-55.258 122.88-122.88 122.88zM363.493 856.747c45.486 0 81.92-36.434 81.92-81.92s-36.434-81.92-81.92-81.92c-45.486 0-81.92 36.434-81.92 81.92s36.434 81.92 81.92 81.92zM687.333 856.747c45.486 0 81.92-36.434 81.92-81.92s-36.434-81.92-81.92-81.92c-45.486 0-81.92 36.434-81.92 81.92s36.434 81.92 81.92 81.92zM363.493 651.947c69.019 0 122.88-53.861 122.88-122.88v-6.4c-58.91-17.821-102.4-72.382-102.4-136.96 0-50.176 26.035-94.69 65.28-120.32-25.662-12.126-47.686-29.973-65.28-51.84v8.32c0 73.41-43.665 136.831-106.24 166.4 39.245 25.63 65.28 70.144 65.28 120.32 0 46.705-22.828 88.354-57.6 114.56 21.243 18.182 47.653 28.8 78.080 28.8zM687.333 651.947c31.243 0 58.489-10.985 80-30.080-33.725-26.275-55.68-67.405-55.68-113.28 0-50.176 26.035-94.69 65.28-120.32-62.575-29.569-106.24-92.99-106.24-166.4v-8.32c-17.594 21.867-39.618 39.714-65.28 51.84 39.245 25.63 65.28 70.144 65.28 120.32 0 66.017-45.311 121.724-106.24 138.24v5.12c0 69.019 53.861 122.88 122.88 122.88zM199.653 610.987c15.923 0 30.755-3.829 44.16-10.24 34.41-16.455 58.24-51.287 58.24-92.16 0-56.797-45.603-102.4-102.4-102.4s-102.4 45.603-102.4 102.4c0 56.797 45.603 102.4 102.4 102.4zM855.013 610.987c56.797 0 102.4-45.603 102.4-102.4s-45.603-102.4-102.4-102.4c-56.797 0-102.4 45.603-102.4 102.4 0 37.831 20.264 70.589 50.56 88.32 0.162 0.095 0.477-0.094 0.64 0 3.187 0.683 5.986 2.022 8.366 3.874 0.641 0.285 1.178 0.941 1.874 1.246 0.554 0.252 0.974 0.466 1.385 0.693 12.157 5.109 25.376 8.267 39.575 8.267zM527.333 488.107c56.797 0 102.4-45.603 102.4-102.4s-45.603-102.4-102.4-102.4c-56.797 0-102.4 45.603-102.4 102.4s45.603 102.4 102.4 102.4zM199.653 365.227c78.941 0 143.36-64.419 143.36-143.36v-78.72c-3.062-1.875-4.238-3.895-21.12-8.96-23.44-7.032-62.507-14.72-122.24-14.72s-98.8 7.688-122.24 14.72c-16.882 5.065-18.058 7.085-21.12 8.96v78.72c0 78.941 64.419 143.36 143.36 143.36zM855.013 365.227c78.941 0 143.36-64.419 143.36-143.36v-78.72c-3.062-1.875-4.238-3.895-21.12-8.96-23.44-7.032-62.507-14.72-122.24-14.72s-98.8 7.688-122.24 14.72c-16.882 5.065-18.058 7.085-21.12 8.96v78.72c0 78.941 64.419 143.36 143.36 143.36zM527.333 242.347c78.941 0 143.36-64.419 143.36-143.36v-78.72c-3.062-1.875-4.238-3.895-21.12-8.96-23.44-7.032-62.507-14.72-122.24-14.72s-98.8 7.688-122.24 14.72c-16.882 5.065-18.058 7.085-21.12 8.96v78.72c0 78.941 64.419 143.36 143.36 143.36z" />
<glyph unicode="&#xe92c;" glyph-name="flashTesting" data-tags="5" horiz-adv-x="902" d="M357.164 696.266h313.021c8.589 0 16.224 6.68 16.224 15.269s-7.635 15.269-16.224 15.269h-313.021c-8.589 0-16.224-6.68-16.224-15.269s6.68-15.269 16.224-15.269v0zM212.105 660.001c2.863-2.863 7.635-4.772 11.452-4.772s8.589 1.909 11.452 4.772l86.844 81.118c6.68 5.726 6.68 15.269 0 21.95-6.68 5.726-16.224 5.726-22.904 0l-75.392-70.621-20.995 20.041c-6.68 5.726-16.224 5.726-22.904 0s-6.68-15.269 0-21.95l32.447-30.539zM316.128 569.34c0-8.589 7.635-15.269 16.224-15.269h336.88c8.589 0 16.224 6.68 16.224 15.269s-7.635 15.269-16.224 15.269h-336.88c-8.589 0-16.224-6.68-16.224-15.269v0zM267.457 624.691h-86.844c-8.589 0-16.224-6.68-16.224-15.269v-81.118c0-8.589 7.635-15.269 16.224-15.269h86.844c8.589 0 16.224 6.68 16.224 15.269v81.118c0 8.589-7.635 15.269-16.224 15.269v0zM251.233 543.573h-54.397v50.58h54.397v-50.58zM669.231 442.413h-336.88c-8.589 0-16.224-6.68-16.224-15.269s7.635-15.269 16.224-15.269h336.88c8.589 0 16.224 6.68 16.224 15.269s-6.68 15.269-16.224 15.269v0zM267.457 482.495h-86.844c-8.589 0-16.224-6.68-16.224-15.269v-81.118c0-8.589 7.635-15.269 16.224-15.269h86.844c8.589 0 16.224 6.68 16.224 15.269v81.118c0 8.589-7.635 15.269-16.224 15.269v0zM251.233 401.377h-54.397v50.58h54.397v-50.58zM669.231 300.217h-336.88c-8.589 0-16.224-6.68-16.224-15.269s7.635-15.269 16.224-15.269h336.88c8.589 0 16.224 6.68 16.224 15.269s-6.68 15.269-16.224 15.269v0zM267.457 340.299h-86.844c-8.589 0-16.224-6.68-16.224-15.269v-81.118c0-8.589 7.635-15.269 16.224-15.269h86.844c8.589 0 16.224 6.68 16.224 15.269v81.118c0 8.589-7.635 15.269-16.224 15.269v0zM251.233 259.181h-54.397v50.58h54.397v-50.58zM527.99 158.022h-195.638c-8.589 0-16.224-6.68-16.224-15.269s7.635-15.269 16.224-15.269h195.638c8.589 0 16.224 6.68 16.224 15.269s-7.635 15.269-16.224 15.269v0zM267.457 199.058h-86.844c-8.589 0-16.224-6.68-16.224-15.269v-81.118c0-8.589 7.635-15.269 16.224-15.269h86.844c8.589 0 16.224 6.68 16.224 15.269v81.118c0 7.635-7.635 15.269-16.224 15.269v0zM251.233 116.985h-54.397v50.58h54.397v-50.58zM88.042 869.955h759.65v31.493h-793.051v-949.562h546.833l246.218 230.949v718.613h-33.402v-695.709h-236.675v-221.405h-489.573v885.622zM611.017 174.245h178.46l-178.46-167.963v167.963z" />
<glyph unicode="&#xe92d;" glyph-name="suit-case" data-tags="suit-case" horiz-adv-x="1118" d="M559.033 897.707c-50.678 0-95.9-14.985-129.28-40.32-27.768-21.076-47.295-49.81-53.12-82.56h-268.16c-33.689 0-61.44-27.751-61.44-61.44v-344.32c-0.057-0.576-0.090-1.244-0.090-1.92s0.033-1.344 0.097-2.004l-0.007-348.076c0-33.689 27.751-61.44 61.44-61.44h901.12c33.689 0 61.44 27.751 61.44 61.44v350.080c0.014 0.287 0.023 0.622 0.023 0.96s-0.008 0.673-0.024 1.007l0.002 344.273c0 33.689-27.751 61.44-61.44 61.44h-268.16c-5.825 32.75-25.352 61.484-53.12 82.56-33.38 25.335-78.602 40.32-129.28 40.32zM559.033 856.747c42.629 0 79.107-12.863 104.32-32 18.71-14.201 31.308-31.069 36.48-49.92h-281.6c5.172 18.851 17.77 35.719 36.48 49.92 25.213 19.137 61.691 32 104.32 32zM108.473 733.867h901.12c11.572 0 20.48-8.908 20.48-20.48v-344.32c-0.026-0.383-0.040-0.83-0.040-1.28s0.015-0.897 0.043-1.34l-0.003-1.22c0-11.572-8.908-20.48-20.48-20.48h-348.16c0 33.689-27.751 61.44-61.44 61.44h-81.92c-33.689 0-61.44-27.751-61.44-61.44h-348.16c-11.572 0-20.48 8.908-20.48 20.48 0.057 0.576 0.090 1.244 0.090 1.92s-0.033 1.344-0.097 2.004l0.007 344.236c0 11.572 8.908 20.48 20.48 20.48zM518.073 365.227h81.92c11.572 0 20.48-8.908 20.48-20.48v-16.64c-0.014-0.287-0.023-0.622-0.023-0.96s0.008-0.673 0.024-1.007l-0.002-1.873c-0.078-0.672-0.123-1.451-0.123-2.24s0.045-1.568 0.132-2.334l-0.009-15.906c0-11.572-8.908-20.48-20.48-20.48h-81.92c-11.572 0-20.48 8.908-20.48 20.48v16.64c0.271 1.251 0.427 2.687 0.427 4.16s-0.155 2.909-0.451 4.294l0.024 15.866c0 11.572 8.908 20.48 20.48 20.48zM87.993 307.627c6.467-2.34 13.251-3.84 20.48-3.84h348.16c0-33.689 27.751-61.44 61.44-61.44h81.92c33.689 0 61.44 27.751 61.44 61.44h348.16c7.229 0 14.013 1.5 20.48 3.84v-290.56c0-11.572-8.908-20.48-20.48-20.48h-901.12c-11.572 0-20.48 8.908-20.48 20.48v290.56z" />
<glyph unicode="&#xe92e;" glyph-name="book" data-tags="book" horiz-adv-x="1248" d="M231.038 918.175c-9.542-1.869-16.643-10.165-16.643-20.119 0-0.127 0.001-0.254 0.003-0.38v-102.381h-44.16c-31.974 0-58.24-26.25-58.24-58.24v-682.24c0-31.99 26.266-58.24 58.24-58.24h341.76c9.647-14.976 42.796-61.44 112-61.44s102.353 46.464 112 61.44h341.76c31.974 0 58.24 26.25 58.24 58.24v682.24c0 31.99-26.266 58.24-58.24 58.24h-44.16v102.4c-0.001 11.31-9.17 20.479-20.48 20.48-156.331 0-257.243-31.591-319.36-64-31.059-16.205-52.158-32.097-65.92-44.8-1.651-1.524-2.375-2.398-3.84-3.84-1.465 1.442-2.189 2.316-3.84 3.84-13.762 12.703-34.861 28.595-65.92 44.8-62.118 32.409-163.029 64-319.36 64-0.287 0.014-0.622 0.023-0.96 0.023s-0.673-0.008-1.007-0.024c-0.24 0.016-0.575 0.024-0.913 0.024s-0.673-0.008-1.007-0.024zM255.358 875.935c138.017-2.77 226.804-30.013 279.68-57.6 27.821-14.515 46.402-29.343 57.6-39.68 8.768-8.094 9.602-10.402 10.88-12.16v-652.16c-13.578 7.46-28.456 15.772-53.12 24.32-58.395 20.238-154.164 38.929-295.040 40.96v696.32zM992.638 875.935v-696.32c-140.876-2.031-236.645-20.722-295.040-40.96-24.664-8.548-39.542-16.86-53.12-24.32v652.16c1.278 1.758 2.112 4.066 10.88 12.16 11.198 10.337 29.779 25.165 57.6 39.68 52.876 27.587 141.663 54.83 279.68 57.6zM170.238 754.335h44.16v-593.92c0.001-11.31 9.17-20.479 20.48-20.48 150.92 0 246.207-20.094 302.72-39.68 28.257-9.793 46.294-19.356 57.6-26.24 8.824-5.373 12.102-7.804 13.44-8.96 3.755-4.064 9.111-6.601 15.061-6.601 1.009 0 2 0.073 2.97 0.214-0.015-0.015 0.097-0.016 0.21-0.016s0.225 0.001 0.337 0.003c3.404 0.581 6.434 1.935 8.994 3.877 1.663 1.057 3.137 2.328 4.409 3.779 2.186 1.695 5.838 3.842 12.18 7.704 11.306 6.884 29.343 16.447 57.6 26.24 56.513 19.586 151.8 39.68 302.72 39.68 11.31 0.001 20.479 9.17 20.48 20.48v593.92h44.16c9.764 0 17.28-7.409 17.28-17.28v-682.24c0-9.871-7.516-17.28-17.28-17.28h-351.36c-0.051 0-0.11 0.001-0.17 0.001-7.545 0-14.137-4.075-17.697-10.144-0.052-0.097-28.574-51.297-84.532-51.297s-84.48 51.2-84.48 51.2c-3.612 6.166-10.205 10.241-17.75 10.241-0.060 0-0.12 0-0.18-0.001h-351.351c-9.764 0-17.28 7.409-17.28 17.28v682.24c0 9.871 7.516 17.28 17.28 17.28z" />
<glyph unicode="&#xe92f;" glyph-name="calculator" data-tags="calculator" d="M510.080 918.827c-1.008-0.185-1.868-0.407-2.705-0.681l-445.935 0.041c-22.386 0-40.96-18.574-40.96-40.96v-444.16c-0.585-1.818-0.922-3.91-0.922-6.080s0.337-4.262 0.962-6.225l-0.040-444.655c0-22.386 18.574-40.96 40.96-40.96h901.12c22.386 0 40.96 18.574 40.96 40.96v446.72c0.271 1.251 0.427 2.687 0.427 4.16s-0.155 2.909-0.451 4.294l0.024 445.946c0 22.386-18.574 40.96-40.96 40.96h-446.72c-1.536 0.413-3.3 0.65-5.119 0.65-0.225 0-0.45-0.004-0.674-0.011zM61.44 877.227h430.080v-430.080h-430.080v430.080zM532.48 877.227h430.080v-430.080h-430.080v430.080zM284.8 795.947c-1.008-0.185-1.868-0.407-2.705-0.681-9.083-2.078-15.861-10.221-15.861-19.946 0-0.173 0.002-0.346 0.006-0.519l-0.001-81.894h-81.92c-0.287 0.014-0.622 0.023-0.96 0.023s-0.673-0.008-1.007-0.024c-10.855-0.525-19.495-9.493-19.495-20.478 0-11.323 9.179-20.502 20.502-20.502 0.338 0 0.673 0.008 1.007 0.024l81.873-0.002v-81.92c-0.001-0.086-0.002-0.188-0.002-0.29 0-11.312 9.17-20.482 20.482-20.482s20.482 9.17 20.482 20.482c0 0.102-0.001 0.203-0.002 0.305v81.905h81.92c0.086-0.001 0.188-0.002 0.29-0.002 11.312 0 20.482 9.17 20.482 20.482s-9.17 20.482-20.482 20.482c-0.102 0-0.203-0.001-0.305-0.002h-81.905v81.92c0.008 0.217 0.013 0.473 0.013 0.729 0 11.312-9.17 20.482-20.482 20.482-0.68 0-1.352-0.033-2.015-0.098zM649.6 692.907c-10.116-1.463-17.802-10.074-17.802-20.48 0-11.422 9.259-20.682 20.682-20.682 1.016 0 2.015 0.073 2.991 0.215l204.689-0.013c0.086-0.001 0.188-0.002 0.29-0.002 11.312 0 20.482 9.17 20.482 20.482s-9.17 20.482-20.482 20.482c-0.102 0-0.203-0.001-0.305-0.002h-204.785c-0.287 0.014-0.622 0.023-0.96 0.023s-0.673-0.008-1.007-0.024c-0.24 0.016-0.575 0.024-0.913 0.024s-0.673-0.008-1.007-0.024c-0.24 0.016-0.575 0.024-0.913 0.024s-0.673-0.008-1.007-0.024zM61.44 406.187h430.080v-430.080h-430.080v430.080zM532.48 406.187h430.080v-430.080h-430.080v430.080zM211.84 274.347c-0.796-0.222-1.435-0.441-2.058-0.689-9.221-1.969-16.133-10.175-16.133-19.996 0-5.672 2.306-10.806 6.031-14.515l58.241-58.241-58.24-58.24c-4.67-3.785-7.63-9.521-7.63-15.948 0-11.312 9.17-20.482 20.482-20.482 6.427 0 12.163 2.96 15.918 7.592l58.27 58.278 58.24-58.24c3.785-4.67 9.521-7.63 15.948-7.63 11.312 0 20.482 9.17 20.482 20.482 0 6.427-2.96 12.163-7.592 15.918l-58.278 58.27 58.24 58.24c3.949 3.742 6.406 9.023 6.406 14.879 0 11.312-9.17 20.482-20.482 20.482-0.904 0-1.794-0.059-2.667-0.172-0.905-0.174-1.765-0.396-2.602-0.67-3.663-1.008-6.914-3.016-9.445-5.708l-58.25-58.251-58.24 58.24c-3.707 3.909-8.923 6.355-14.712 6.4-0.295 0.014-0.631 0.023-0.968 0.023s-0.673-0.008-1.007-0.024zM649.6 262.827c-10.116-1.463-17.802-10.074-17.802-20.48 0-11.422 9.259-20.682 20.682-20.682 1.016 0 2.015 0.073 2.991 0.215l204.689-0.013c0.086-0.001 0.188-0.002 0.29-0.002 11.312 0 20.482 9.17 20.482 20.482s-9.17 20.482-20.482 20.482c-0.102 0-0.203-0.001-0.305-0.002h-204.785c-0.287 0.014-0.622 0.023-0.96 0.023s-0.673-0.008-1.007-0.024c-0.24 0.016-0.575 0.024-0.913 0.024s-0.673-0.008-1.007-0.024c-0.24 0.016-0.575 0.024-0.913 0.024s-0.673-0.008-1.007-0.024zM649.6 139.947c-10.116-1.463-17.802-10.074-17.802-20.48 0-11.422 9.259-20.682 20.682-20.682 1.016 0 2.015 0.073 2.991 0.215l204.689-0.013c0.086-0.001 0.188-0.002 0.29-0.002 11.312 0 20.482 9.17 20.482 20.482s-9.17 20.482-20.482 20.482c-0.102 0-0.203-0.001-0.305-0.002h-204.785c-0.287 0.014-0.622 0.023-0.96 0.023s-0.673-0.008-1.007-0.024c-0.24 0.016-0.575 0.024-0.913 0.024s-0.673-0.008-1.007-0.024c-0.24 0.016-0.575 0.024-0.913 0.024s-0.673-0.008-1.007-0.024z" />
<glyph unicode="&#xe930;" glyph-name="chemistry" data-tags="chemistry" horiz-adv-x="913" d="M29.513 64.019c-36.667-51.424-32.643-85.408-22.805-104.636s37.562-44.716 108.213-44.716h682.816c70.652 0 97.928 24.147 108.213 44.716s13.862 52.765-22.358 103.741l-212.402 339.396-3.13 4.024c-50.177 76.15-83.574 167.534-92.83 265.94l-0.179 249.19c0 9.384-7.608 16.992-16.992 16.992h-238.337c0 0 0 0 0 0-9.384 0-16.992-7.608-16.992-16.992v-247.28c0-119.392-84.066-271.427-84.961-273.216zM875.542-25.413c-16.26-16.666-38.941-27.002-64.036-27.002-4.861 0-9.631 0.388-14.282 1.134l-682.304-0.068c-4.256-0.718-9.159-1.128-14.158-1.128-25.125 0-47.831 10.361-64.076 27.043-1.337 5.332-2.092 11.43-2.092 17.705 0 20.791 8.298 39.644 21.763 53.428l170.801 305.397c34.431-22.738 76.677-36.274 122.084-36.274 1.726 0 3.448 0.020 5.165 0.058 1.206-0.039 2.928-0.058 4.654-0.058 45.408 0 87.653 13.536 122.923 36.794 28.765 19.439 65.238 31.339 104.489 31.339 2.273 0 4.536-0.040 6.789-0.119 0.154 0.013 0.722 0.016 1.29 0.016 18.994 0 37.377-2.614 54.81-7.503l206.057-331.005c13.535-13.45 21.913-32.076 21.913-52.659 0-5.744-0.652-11.335-1.887-16.704zM338.948 674.395v230.288h204.8v-230.288c7.313-96.635 36.789-185.048 83.314-261.998-11.204 3.975-22.522 4.785-34.010 4.879-1.578 0.035-3.3 0.055-5.026 0.055-45.408 0-87.653-13.536-122.923-36.794-28.749-19.408-65.194-31.288-104.413-31.288-1.67 0-3.335 0.022-4.995 0.064-1.13-0.041-2.75-0.061-4.374-0.061-39.262 0-75.75 11.878-106.066 32.237l0.684-0.433v2.683s89.432 160.084 89.432 290.655z" />
<glyph unicode="&#xe931;" glyph-name="computer" data-tags="computer" horiz-adv-x="1344" d="M112.348 106.698c0 0 0 0 0 0 8.747 0 15.838 7.091 15.838 15.838 0 0 0 0 0 0v752.286c-0.044 0.613-0.070 1.328-0.070 2.049 0 16.674 13.517 30.19 30.19 30.19 0.721 0 1.436-0.025 2.145-0.075l1023.905 0.005c17.852-0.245 32.23-14.775 32.23-32.662 0-0.697-0.022-1.39-0.065-2.077l0.005-749.718c0-8.884 7.202-16.085 16.085-16.085s16.085 7.202 16.085 16.085v749.317c0.019 0.592 0.030 1.288 0.030 1.987 0 35.47-28.483 64.288-63.825 64.827l-1024.546 0.001c-0.6 0.021-1.305 0.033-2.012 0.033-34.167 0-61.866-27.698-61.866-61.866 0-0.708 0.012-1.413 0.035-2.115l-0.003-752.184c0-8.747 7.091-15.838 15.838-15.838 0 0 0 0 0 0zM208.363 842.652c0 0 0 0 0 0-8.747 0-15.838-7.091-15.838-15.838 0 0 0 0 0 0v-704.278c0-8.747 7.091-15.838 15.838-15.838 0 0 0 0 0 0h929.964c0 0 0 0 0 0 8.747 0 15.838 7.091 15.838 15.838 0 0 0 0 0 0v704.278c0 8.747-7.091 15.838-15.838 15.838 0 0 0 0 0 0h-929.964zM1120.51 138.373h-896.309v672.603h896.309v-672.603zM1328.379 42.358h-1312.046c-0.15 0.005-0.326 0.008-0.502 0.008-8.576 0-15.559-6.816-15.829-15.326l-0.001-37.639c5.909-40.418 39.032-71.506 79.916-74.225l1184.617-0.014c41.98 5.29 74.887 38.198 80.131 79.724l0.047 32.129c0 8.747-7.091 15.838-15.838 15.838 0 0 0 0 0 0zM1313.036-6.64c-5.069-25.028-24.465-44.423-49.089-49.424l-1183.77-0.068c-24.161 2.172-43.755 19.422-49.412 42.179l-0.081 24.636h1281.856v-15.838z" />
<glyph unicode="&#xe932;" glyph-name="full-heart" data-tags="full-heart" horiz-adv-x="891" d="M269.027 788.267c-128.196 0-232.96-103.558-232.96-231.040 0-261.481 296.68-398.468 396.8-481.28l12.8-10.88 12.8 10.88c100.12 82.812 396.8 219.799 396.8 481.28 0 127.482-104.783 231.040-232.96 231.040-71.174 0-133.918-33.012-176.64-83.2-42.709 50.191-105.466 83.2-176.64 83.2zM269.027 747.307c66.914 0 125.033-33.833 159.36-85.12l17.28-25.6 17.28 25.6c34.348 51.291 92.446 85.12 159.36 85.12 106.196 0 192-84.909 192-190.080 0-223.213-251.096-348.284-368.64-440.32-117.544 92.036-368.64 217.107-368.64 440.32 0 105.171 85.781 190.080 192 190.080z" />
<glyph unicode="&#xe933;" glyph-name="messages" data-tags="messages" horiz-adv-x="1195" d="M1063.841 579.564h-250.108c-7.593 0-13.806-6.212-13.806-13.806s6.212-13.806 13.806-13.806h250.108c37.735 0 68.567-30.831 68.567-68.567v-305.33c0-37.735-30.831-68.567-68.567-68.567h-64.655c-7.593 0-13.806-6.212-13.806-13.806v-113.434l-128.85 123.328c-2.531 2.531-5.982 3.911-9.434 3.911h-283.239c-37.735 0-68.567 30.831-68.567 68.567v155.999c0 7.593-6.212 13.806-13.806 13.806s-13.806-6.212-13.806-13.806v-155.999c0-52.92 43.026-96.176 96.176-96.176h277.947l148.177-141.966c2.531-2.531 5.982-3.911 9.664-3.911 1.841 0 3.681 0.46 5.523 1.151 5.062 2.071 8.283 7.133 8.283 12.656v132.072h50.85c52.92 0 96.176 43.026 96.176 96.176v305.33c-0.46 52.92-43.486 96.176-96.636 96.176zM635.184 917.333h-504.124c-53.381 0-96.866-43.486-96.866-96.866v-307.631c0-53.381 43.486-96.866 96.866-96.866h51.31v-132.992c0-5.523 3.222-10.584 8.283-12.656 1.841-0.691 3.681-1.151 5.523-1.151 3.452 0 6.903 1.38 9.664 3.911l149.327 143.116h280.018c53.381 0 96.866 43.256 96.866 96.636v307.631c0 53.381-43.486 96.866-96.866 96.866zM704.441 512.837c0-38.194-31.061-69.257-69.257-69.257l-285.541 0.23c-3.452 0-6.903-1.38-9.434-3.911l-130.001-124.478v114.584c0 3.681-1.38 7.133-4.141 9.664-2.531 2.531-6.212 4.141-9.664 4.141h-65.346c-38.194 0-69.257 31.061-69.257 69.257v307.401c0 38.194 31.061 69.257 69.257 69.257h504.124c38.194 0 69.257-31.061 69.257-69.257v-307.631z" />
<glyph unicode="&#xe934;" glyph-name="geography" data-tags="geography" d="M1008.66 551.021c0.484 11.889-2.805 24.002-10.599 36.239-67.539 203.869-259.841 351.407-486.062 351.407-60.539 0-118.645-10.623-172.594-30.009l-1.291 0.918c-0.385-0.546-0.832-1.191-1.241-1.775-196.336-71.696-336.874-260.3-336.874-481.122 0-282.329 229.683-512.012 512-512.012s512 229.683 512 512.012c0 42.879-5.374 84.516-15.34 124.342zM931.739 549.904c-7.484-13.019-33.869-36.959-50.424-51.963-44.058-39.9-97.895-88.661-94.78-146.818-6.987-1.911-15.886-3.835-22.687-5.299-32.764-7.049-69.884-15.042-90.2-43.152-5.51-7.645-36.971-2.519-57.325 7.024-3.984 1.862-8.017 3.090-12.1 3.847 6.503 2.37 13.614 5.051 20.949 8.265 28.544 12.51 95.624 60.651 92.248 105.565-1.452 19.385-14.93 35.259-34.34 40.483-100.576 26.981-136.405 119.899-137.82 123.672l-2.954 8.129c-0.323 1.899-0.658 3.909-0.943 5.672-5.163 31.473-14.756 90.039-65.466 93.725-15.898 1.142-28.768-0.385-40.111-1.725-14.93-1.775-27.825-3.314-50.164 1.117-3.922 0.769-6.131 1.564-7.223 2.035-1.874 5.237-2.854 19.783-3.649 31.622-0.72 10.698-1.527 22.836-3.115 36.773-3.922 34.402 4.381 58.876 13.974 76.66 40.037 12.1 82.456 18.678 126.39 18.678 198.458-0.012 366.386-132.88 419.739-314.311zM76.201 388.889c24.461-1.365 48.972-5.039 61.234-9.209 0.137-1.812 0.261-3.611 0.385-5.423 2.073-29.177 5.212-73.26 46.875-91.106 34.402-14.744 58.020 8.315 69.388 22.438 4.654-2.184 9.531-4.306 14.508-6.466 8.663-3.785 23.481-10.239 30.952-15.191-0.434-5.473-1.191-11.74-1.924-17.871-3.549-29.314-7.57-62.55 17.884-79.502 7.93-6.367 33.447-35.978 41.563-47.917 0.956-4.356 2.358-9.097 4.083-14.88 1.762-5.92 5.659-19.001 6.391-25.293-6.602-17.896-26.323-56.63-35.892-64.138 2.581 2.035 11.12 5.188 20.974 1.899l-4.977-14.93c-148.89 60.564-257.098 200.829-271.445 367.59zM357.823 247.78c2.457-1.638 4.431-3.45 6.019-5.275-3.264 3.016-5.436 4.89-6.019 5.275zM512-10.857c-38.014 0-74.886 4.902-110.070 14.049 22.711 32.863 37.319 74.774 37.517 75.382 6.193 19.15 0.782 40.496-6.925 66.409-1.167 3.909-2.234 7.285-2.718 9.569 0.012-0.074 0.385-1.874 0.397-4.666-0.037 24.784-40.148 67.452-60.713 87.271 0.335 5.771 1.328 13.937 2.060 19.931 1.378 11.455 2.817 23.295 2.817 34.477 0 42.643-43.921 61.792-75.99 75.779-8.613 3.76-18.38 8.017-22.488 10.76-12.932 8.625-36.81 17.586-63.182-6.553-0.248 2.867-0.434 5.61-0.608 7.98-0.496 7.012-1.018 13.999-1.837 20.626-4.877 39.007-50.027 60.266-134.134 63.369 12.398 147.736 98.453 274.771 221.294 344.208-1.539-14.396-1.737-30.108 0.223-47.322 1.415-12.423 2.147-23.493 2.805-33.31 2.792-41.687 5.957-88.947 70.716-101.742 33.869-6.702 55.786-4.108 73.396-2.011 6.019 0.72 11.256 1.328 16.506 1.539 3.103-8.973 5.597-24.25 6.813-31.647 1.725-10.537 3.81-23.208 9.879-33.385 10.152-23.866 51.777-108.295 146.818-150.156-9.023-7.794-19.745-15.488-29.301-19.683-7.024-3.090-13.974-5.585-20.564-7.98-29.599-10.748-70.132-25.467-76.772-78.559-3.041-24.114 6.069-39.28 14.247-47.756 20.093-20.775 49.332-18.132 68.718-16.32 2.581 0.236 6.118 0.558 8.613 0.695 21.321-9.32 46.192-15.811 70.083-15.811 28.681 0 55.972 9.358 74.042 34.365 5.696 5.746 31.808 11.356 45.845 14.384 31.275 6.727 60.787 13.081 75.928 37.468 7.508 12.125 9.643 26.732 5.994 41.141-5.746 22.637 39.751 63.84 69.859 91.106 5.548 5.026 11.269 10.214 16.953 15.526 0.757-10.45 1.278-20.962 1.278-31.61 0.037-241.25-196.249-437.524-437.499-437.524z" />
<glyph unicode="&#xe935;" glyph-name="target" data-tags="target" horiz-adv-x="1045" d="M1031.48 835.991c-3.192 6.296-10.087 9.836-17.040 8.749l-87.125-13.43 13.43 87.125c1.074 6.973-2.455 13.849-8.749 17.040-6.296 3.192-13.929 1.975-18.918-3.016l-101.135-101.135c-2.452-2.455-4.059-5.624-4.587-9.053l-16.009-103.852-57.893-57.893c-79.748 74.039-182.979 114.646-292.529 114.646-115.015 0-223.086-44.73-304.304-125.948-81.223-81.221-125.952-189.291-125.952-304.307s44.73-223.083 125.948-304.304c81.221-81.219 189.291-125.946 304.304-125.946s223.086 44.73 304.304 125.948c81.219 81.221 125.948 189.291 125.948 304.304 0 91.489-28.276 178.817-81.769 252.544-5.294 7.297-15.501 8.921-22.79 3.625-7.295-5.294-8.919-15.495-3.625-22.79 49.425-68.121 75.548-148.821 75.548-233.381 0-219.246-178.371-397.615-397.618-397.615s-397.618 178.369-397.618 397.615 178.371 397.618 397.618 397.618c100.832 0 195.868-37.215 269.437-105.103l-74.591-74.591c-53.637 48.030-122.339 74.35-194.848 74.35-161.162 0-292.275-131.116-292.275-292.275s131.113-292.275 292.275-292.275 292.273 131.116 292.273 292.275c0 53.79-14.707 106.351-42.531 152.007-4.69 7.695-14.731 10.134-22.427 5.441-7.695-4.688-10.13-14.731-5.441-22.427 24.703-40.537 37.761-87.227 37.761-135.023 0-143.167-116.473-259.639-259.637-259.639-143.167 0-259.639 116.473-259.639 259.639s116.473 259.639 259.639 259.639c63.806 0 124.299-22.927 171.742-64.82l-74.768-74.768c-27.359 22.177-61.226 34.245-96.975 34.245-85.078 0-154.296-69.217-154.296-154.298s69.217-154.296 154.296-154.296c85.080 0 154.296 69.215 154.296 154.296 0 15.158-2.193 30.14-6.516 44.532-2.593 8.631-11.692 13.53-20.323 10.931-8.631-2.591-13.526-11.69-10.931-20.323 3.407-11.344 5.135-23.165 5.135-35.14 0-67.083-54.577-121.66-121.66-121.66s-121.66 54.577-121.66 121.66c0 67.085 54.577 121.662 121.66 121.662 27.013 0 52.651-8.749 73.725-24.859l-85.265-85.265c-6.372-6.375-6.372-16.705 0-23.078 3.186-3.186 7.363-4.777 11.538-4.777s8.352 1.593 11.538 4.777l292.714 292.714c0.1 0.1 69.247 69.247 69.247 69.247l103.852 16.011c3.429 0.526 6.599 2.134 9.053 4.587l101.135 101.135c4.998 4.998 6.213 12.629 3.024 18.925zM838.795 812.022l62.098 62.096-8.411-54.564-62.098-62.098 8.411 54.566zM908.025 742.79l-54.562-8.411 62.098 62.098 54.56 8.411-62.096-62.098z" />
<glyph unicode="&#xe936;" glyph-name="world" data-tags="world" d="M512 918.187c-4.783 0-9.329-0.504-14.080-0.64-264.617-7.582-477.44-224.447-477.44-490.88s212.823-483.298 477.44-490.88c4.663-0.462 9.323-0.64 14.080-0.64s9.417 0.178 14.080 0.64c264.617 7.582 477.44 224.447 477.44 490.88s-212.823 483.298-477.44 490.88c-4.663 0.462-9.323 0.64-14.080 0.64zM491.52 875.307v-202.24h-158.72c8.914 28.065 19.146 54.292 30.72 77.44 35.663 71.325 80.999 115.033 128 124.8zM532.48 875.307c47.001-9.767 92.337-53.475 128-124.8 11.574-23.148 21.806-49.375 30.72-77.44h-158.72v202.24zM390.4 860.587c-23.924-24.47-45.389-55.579-63.36-91.52-14.383-28.766-26.777-61.277-37.12-96h-155.52c58.931 90.21 149.629 157.796 256 187.52zM633.6 860.587c106.371-29.724 197.069-97.31 256-187.52h-155.52c-10.343 34.723-22.737 67.234-37.12 96-17.971 35.941-39.436 67.050-63.36 91.52zM110.080 630.827h168.32c-13.197-56.41-20.422-118.407-21.76-183.68h-194.56c2.919 65.961 19.73 128.097 48 183.68zM320.64 630.827h170.88v-183.68h-193.92c1.437 65.923 9.301 128.142 23.040 183.68zM532.48 630.827h170.88c13.739-55.538 21.603-117.757 23.040-183.68h-193.92v183.68zM745.6 630.827h168.32c28.27-55.583 45.081-117.719 48-183.68h-194.56c-1.338 65.273-8.563 127.27-21.76 183.68zM62.72 406.187h193.92c1.36-65.384 8.554-127.23 21.76-183.68h-168.32c-28.24 55.504-44.403 117.812-47.36 183.68zM297.6 406.187h193.92v-183.68h-170.88c-13.749 55.579-21.594 117.653-23.040 183.68zM532.48 406.187h193.92c-1.446-66.027-9.291-128.101-23.040-183.68h-170.88v183.68zM767.36 406.187h193.92c-2.957-65.868-19.12-128.176-47.36-183.68h-168.32c13.206 56.45 20.4 118.296 21.76 183.68zM134.4 180.267h155.52c10.343-34.723 22.737-67.234 37.12-96 17.971-35.941 39.436-67.050 63.36-91.52-106.304 29.706-197.021 97.404-256 187.52zM332.8 180.267h158.72v-202.24c-47.001 9.767-92.337 53.475-128 124.8-11.574 23.148-21.806 49.375-30.72 77.44zM532.48 180.267h158.72c-8.914-28.065-19.146-54.292-30.72-77.44-35.663-71.325-80.999-115.033-128-124.8v202.24zM734.080 180.267h155.52c-58.979-90.116-149.696-157.814-256-187.52 23.924 24.47 45.389 55.579 63.36 91.52 14.383 28.766 26.777 61.277 37.12 96z" />
<glyph unicode="&#xe937;" glyph-name="publishing" data-tags="6" horiz-adv-x="905" d="M549.054 550.731h-343.56c-7.635 0-13.361-6.68-13.361-15.269s5.726-15.269 13.361-15.269h342.606c7.635 0 13.361 6.68 13.361 15.269 0.954 8.589-4.772 15.269-12.406 15.269v0zM205.494 644.256h137.424c7.635 0 13.361 6.68 13.361 15.269s-5.726 15.269-13.361 15.269h-137.424c-7.635 0-13.361-6.68-13.361-15.269s5.726-15.269 13.361-15.269v0zM562.415 411.398c0 8.589-5.726 15.269-13.361 15.269h-343.56c-7.635 0-13.361-6.68-13.361-15.269s5.726-15.269 13.361-15.269h342.606c8.589-0.954 14.315 6.68 14.315 15.269v0zM452.666 287.335c0 8.589-5.726 15.269-13.361 15.269h-233.812c-7.635 0-13.361-6.68-13.361-15.269s5.726-15.269 13.361-15.269h232.857c8.589-0.954 14.315 6.68 14.315 15.269v0zM205.494 178.541c-7.635 0-13.361-6.68-13.361-15.269s5.726-15.269 13.361-15.269h191.821c7.635 0 13.361 6.68 13.361 15.269s-5.726 15.269-13.361 15.269h-191.821zM82.385 860.889h397.957v-217.588h191.821v-263.396h27.676v286.3l-200.41 226.177h-444.719v-931.43h425.633v31.493h-397.957v868.444zM508.017 838.94l145.059-164.145h-145.059v164.145zM521.378 333.143v-372.19h329.245v372.19h-329.245zM822.948-7.554h-123.109v194.684l59.169-66.803 19.087 21.95-91.616 104.022-91.616-104.022 19.087-21.95 59.169 66.803v-194.684h-124.063v310.158h274.848v-310.158z" />
<glyph unicode="&#xe938;" glyph-name="alisonShop" data-tags="7" horiz-adv-x="953" d="M476.667 928.427c-113.323 0-204.8-91.477-204.8-204.8v-40.96h-161.92l-1.92-17.92-81.92-716.8-2.56-23.040h906.24l-2.56 23.040-81.92 716.8-1.92 17.92h-161.92v40.96c0 113.323-91.477 204.8-204.8 204.8zM476.667 887.467c91.477 0 163.84-72.363 163.84-163.84v-40.96h-327.68v40.96c0 91.477 72.363 163.84 163.84 163.84zM147.067 641.707h124.8v-46.72c-12.224-7.087-20.48-20.053-20.48-35.2 0-22.622 18.338-40.96 40.96-40.96s40.96 18.338 40.96 40.96c0 15.147-8.256 28.113-20.48 35.2v46.72h327.68v-46.72c-12.224-7.087-20.48-20.053-20.48-35.2 0-22.622 18.338-40.96 40.96-40.96s40.96 18.338 40.96 40.96c0 15.147-8.256 28.113-20.48 35.2v46.72h124.8l77.44-675.84h-814.080l77.44 675.84z" />
<glyph unicode="&#xe939;" glyph-name="pencil" data-tags="pencil, write, edit" d="M883.2 919.040c-25.513-0.005-50.934-9.984-70.4-29.44l-16.64-16.64 140.8-140.8c-0.102-0.082 16.64 16.64 16.64 16.64 38.932 38.932 38.892 101.888 0 140.8-19.487 19.476-44.887 29.445-70.4 29.44zM764.8 836.48c-4.844-0.713-9.050-3.030-12.147-6.386l-664.333-664.974c-2.615-2.377-4.604-5.399-5.719-8.815l-41.001-153.745c-0.415-1.54-0.653-3.308-0.653-5.131 0-11.312 9.17-20.482 20.482-20.482 1.823 0 3.591 0.238 5.274 0.685l153.457 40.928c3.561 1.156 6.583 3.145 8.945 5.743l664.975 664.337c3.825 3.742 6.196 8.956 6.196 14.724 0 11.373-9.219 20.592-20.592 20.592-5.609 0-10.694-2.242-14.408-5.88l-661.116-661.117-83.2 83.2 661.12 661.12c3.869 3.731 6.271 8.96 6.271 14.75 0 11.312-9.17 20.482-20.482 20.482-0.404 0-0.806-0.012-1.204-0.035-0.232 0.017-0.567 0.025-0.905 0.025s-0.673-0.008-1.007-0.024z" />
<glyph unicode="&#xe93a;" glyph-name="about" data-tags="9" horiz-adv-x="1530" d="M214.205-85.333l-214.43 360.009 393.76 663.091h405.010l591.089-994.974-3.825-9.675h-419.185l-370.584 623.715zM989.349-25.707h334.808l-548.563 924.098h-360.009l-368.334-622.815 167.629-282.157 382.509 642.841zM822.395-65.983h-452.486l226.356 381.159zM439.886-25.707h311.183l-155.479 261.906zM1385.584-65.983h-38.476l-213.53 361.809h396.010zM1204.229 255.55l159.079-267.532 105.078 267.532h-264.156z" />
<glyph unicode="&#xe93b;" glyph-name="left-arrow" data-tags="left-arrow" d="M761.939-85.333l-527.183 512.016 527.183 511.984 27.312-28.105-498.191-483.879 498.191-483.89z" />
<glyph unicode="&#xe93c;" glyph-name="right-arrow" data-tags="right-arrow" d="M268.194 938.667l-24.388-24.37 487.63-487.63-487.63-487.63 24.388-24.37 512 512z" />
<glyph unicode="&#xe93e;" glyph-name="rotate-left" data-tags="rotate-left" horiz-adv-x="811" d="M97.814 815.926c-11.173-0.18-20.162-9.28-20.162-20.48 0-0.099 0.001-0.197 0.002-0.295v-204.785h204.8c0.086-0.001 0.188-0.002 0.29-0.002 11.312 0 20.482 9.17 20.482 20.482s-9.17 20.482-20.482 20.482c-0.102 0-0.203-0.001-0.305-0.002h-127.865c60.216 74.474 151.273 122.88 252.8 122.88 180.224 0 327.68-151.552 327.68-337.92-2.048-186.368-149.496-337.92-329.72-337.92-178.176 0-321.536 145.408-327.68 327.68 0 12.288-8.192 20.48-20.48 20.48s-20.48-8.192-20.48-20.48c6.144-204.8 167.936-368.64 368.64-368.64 202.752 0 368.64 169.984 368.64 378.88s-165.888 378.88-368.64 378.88c-115.163 0-219.535-55.231-286.72-141.72v141.72c0.001 0.083 0.002 0.182 0.002 0.28 0 11.312-9.17 20.482-20.482 20.482-0.112 0-0.225-0.001-0.337-0.003z" />
<glyph unicode="&#xe93f;" glyph-name="check" data-tags="check" d="M896 725.334q18.333 0 30.5-12.167t12.167-30.5q0-18-12.333-30.333l-512-512q-12.333-12.333-30.333-12.333t-30.333 12.333l-256 256q-12.333 12.333-12.333 30.333 0 18.333 12.167 30.5t30.5 12.167q18 0 30.333-12.333l225.667-226 481.667 482q12.333 12.333 30.333 12.333z" />
<glyph unicode="&#xe940;" glyph-name="zoom-out" data-tags="zoom-out" horiz-adv-x="960" d="M388.8 876.267c-192.041 0-348.16-156.119-348.16-348.16s156.119-348.16 348.16-348.16c75.971 0 146.234 24.497 203.52 65.92l269.44-268.8 57.6 57.6-266.24 266.88c52.312 60.927 83.84 140.108 83.84 226.56 0 192.041-156.119 348.16-348.16 348.16zM388.8 835.307c169.904 0 307.2-137.296 307.2-307.2s-137.296-307.2-307.2-307.2c-169.904 0-307.2 137.296-307.2 307.2s137.296 307.2 307.2 307.2zM224.96 548.587v-40.96h327.68v40.96h-327.68z" />
<glyph unicode="&#xe941;" glyph-name="zoom-in" data-tags="zoom-in" horiz-adv-x="939" d="M378.133 876.267c-192.041 0-348.16-156.119-348.16-348.16s156.119-348.16 348.16-348.16c75.971 0 146.234 24.497 203.52 65.92l269.44-268.8 57.6 57.6-266.24 266.88c52.312 60.927 83.84 140.108 83.84 226.56 0 192.041-156.119 348.16-348.16 348.16zM378.133 835.307c169.904 0 307.2-137.296 307.2-307.2s-137.296-307.2-307.2-307.2c-169.904 0-307.2 137.296-307.2 307.2s137.296 307.2 307.2 307.2zM357.653 691.947v-143.36h-143.36v-40.96h143.36v-143.36h40.96v143.36h143.36v40.96h-143.36v143.36h-40.96z" />
<glyph unicode="&#xe942;" glyph-name="circle-group" data-tags="circle-group" horiz-adv-x="1050" d="M131.082 204.737c0-25.509-20.68-46.197-46.197-46.197s-46.197 20.68-46.197 46.197c0 25.509 20.68 46.197 46.197 46.197s46.197-20.68 46.197-46.197zM150.224 346.342c0-24.212-19.632-43.844-43.844-43.844s-43.844 19.632-43.844 43.844c0 24.212 19.632 43.844 43.844 43.844s43.844-19.632 43.844-43.844zM212.621 474.091c0-22.92-18.584-41.506-41.506-41.506s-41.506 18.584-41.506 41.506c0 22.92 18.584 41.506 41.506 41.506s41.506-18.584 41.506-41.506zM311.751 575.162c0-21.623-17.538-39.156-39.156-39.156s-39.156 17.538-39.156 39.156c0 21.623 17.538 39.156 39.156 39.156s39.156-17.538 39.156-39.156zM437.349 639.426c0-20.331-16.485-36.818-36.818-36.818s-36.818 16.485-36.818 36.818c0 20.331 16.485 36.818 36.818 36.818s36.818-16.485 36.818-36.818zM576.706 660.327c0-19.034-15.439-34.468-34.468-34.468s-34.468 15.439-34.468 34.468c0 19.034 15.439 34.468 34.468 34.468s34.468-15.439 34.468-34.468zM715.494 636.007c0-17.739-14.386-32.13-32.13-32.13s-32.13 14.386-32.13 32.13c0 17.739 14.386 32.13 32.13 32.13s32.13-14.386 32.13-32.13zM839.522 568.626c0-16.447-13.34-29.78-29.78-29.78s-29.78 13.34-29.78 29.78c0 16.447 13.34 29.78 29.78 29.78s29.78-13.34 29.78-29.78zM936.205 465.102c0-15.15-12.287-27.442-27.442-27.442s-27.442 12.287-27.442 27.442c0 15.15 12.287 27.442 27.442 27.442s27.442-12.287 27.442-27.442zM995.488 335.9c0-13.858-11.244-25.092-25.092-25.092s-25.092 11.244-25.092 25.092c0 13.858 11.244 25.092 25.092 25.092s25.092-11.244 25.092-25.092zM1011.312 193.802c0-12.624-10.236-22.857-22.857-22.857s-22.857 10.236-22.857 22.857c0 12.624 10.236 22.857 22.857 22.857s22.857-10.236 22.857-22.857z" />
</font>
</defs>
</svg>
